<svg width="1025" height="149" viewBox="0 0 1025 149" fill="none" xmlns="http://www.w3.org/2000/svg">
<path d="M439 74.5L562.407 74.5Z" fill="#FF023F"/>
<path d="M439 74.5L562.407 74.5" stroke="#FF023F" stroke-width="2" stroke-linecap="round" stroke-dasharray="2 4"/>
<path d="M567 74L562.429 79V69L567 74Z" fill="#FF023F"/>
<path d="M737 100.5L860.407 100.5Z" fill="#FF023F"/>
<path d="M737 100.5L860.407 100.5" stroke="#FF023F" stroke-width="2" stroke-linecap="round" stroke-dasharray="2 4"/>
<path d="M865 100L860.429 105V95L865 100Z" fill="#FF023F"/>
<path d="M447.008 101.586L531.078 101.503" stroke="#FF023F" stroke-width="2" stroke-linecap="round" stroke-dasharray="2 4"/>
<path d="M534.482 101.249L529.69 106.504L529.68 96.0038L534.482 101.249Z" fill="#FF023F"/>
<path d="M747.008 70.5859L831.078 70.5028" stroke="#FF023F" stroke-width="2" stroke-linecap="round" stroke-dasharray="2 4"/>
<path d="M834.482 70.249L829.69 75.5038L829.68 65.0038L834.482 70.249Z" fill="#FF023F"/>
<path d="M138 100.425L258.399 100.425Z" fill="#FF023F"/>
<path d="M138 100.425L258.399 100.425" stroke="#FF023F" stroke-width="2" stroke-linecap="round" stroke-dasharray="2 4"/>
<path d="M264.664 101.175L260.999 106.425V95.9248L264.664 101.175Z" fill="#FF023F"/>
<path d="M148.008 73.5869L232.078 73.5038" stroke="#FF023F" stroke-width="2" stroke-linecap="round" stroke-dasharray="2 4"/>
<path d="M235.482 73.25L230.69 78.5047L230.68 68.0047L235.482 73.25Z" fill="#FF023F"/>
<path d="M354 55.6465H294C292.409 55.6465 290.883 56.2742 289.757 57.3916C288.632 58.509 288 60.0246 288 61.6048V139.063C288 140.643 288.632 142.159 289.757 143.276C290.883 144.394 292.409 145.021 294 145.021H420C421.591 145.021 423.117 144.394 424.243 143.276C425.368 142.159 426 140.643 426 139.063V61.6048C426 60.0246 425.368 58.509 424.243 57.3916C423.117 56.2742 421.591 55.6465 420 55.6465H408" stroke="#FF023F" stroke-width="2" stroke-linejoin="round"/>
<path d="M399 121.188H315V133.104H399V121.188Z" stroke="#FF023F" stroke-width="2" stroke-linejoin="round"/>
<path d="M297 121.188H303V136.083" stroke="#FF023F" stroke-width="2" stroke-linejoin="round"/>
<path d="M411 136.083V121.188H417" stroke="#FF023F" stroke-width="2" stroke-linejoin="round"/>
<path d="M315 94.375H303V106.292H315V94.375Z" stroke="#FF023F" stroke-width="2" stroke-linejoin="round"/>
<path d="M315 67.5625H303V79.4792H315V67.5625Z" stroke="#FF023F" stroke-width="2" stroke-linejoin="round"/>
<path d="M339 67.5625H327V79.4792H339V67.5625Z" stroke="#FF023F" stroke-width="2" stroke-linejoin="round"/>
<path d="M387 67.5625H375V79.4792H387V67.5625Z" stroke="#FF023F" stroke-width="2" stroke-linejoin="round"/>
<path d="M411 67.5625H399V79.4792H411V67.5625Z" stroke="#FF023F" stroke-width="2" stroke-linejoin="round"/>
<path d="M339 94.375H327V106.292H339V94.375Z" stroke="#FF023F" stroke-width="2" stroke-linejoin="round"/>
<path d="M363 94.375H351V106.292H363V94.375Z" stroke="#FF023F" stroke-width="2" stroke-linejoin="round"/>
<path d="M387 94.375H375V106.292H387V94.375Z" stroke="#FF023F" stroke-width="2" stroke-linejoin="round"/>
<path d="M411 94.375H399V106.292H411V94.375Z" stroke="#FF023F" stroke-width="2" stroke-linejoin="round"/>
<path d="M397.97 14.9597C394.614 11.6267 390.337 9.35688 385.682 8.43736C381.026 7.51785 376.201 7.9899 371.815 9.79382C367.43 11.5977 363.682 14.6525 361.045 18.5719C358.408 22.4912 357 27.0991 357 31.8128C357 36.5266 358.408 41.1345 361.045 45.0538C363.682 48.9731 367.43 52.0279 371.815 53.8318C376.201 55.6358 381.026 56.1078 385.682 55.1883C390.337 54.2688 394.614 51.999 397.97 48.666L380.999 31.8128L397.97 14.9597Z" stroke="#FF023F" stroke-width="2" stroke-linejoin="round"/>
<path d="M408 31.8125H414" stroke="#FF023F" stroke-width="2" stroke-linejoin="round"/>
<path d="M396 31.8125H402" stroke="#FF023F" stroke-width="2" stroke-linejoin="round"/>
<path d="M420 31.8125H426" stroke="#FF023F" stroke-width="2" stroke-linejoin="round"/>
<path d="M344.997 46.7083V43.7292C345.014 42.9421 344.87 42.1599 344.575 41.4295C344.279 40.699 343.838 40.0355 343.277 39.4789C342.717 38.9223 342.049 38.484 341.313 38.1905C340.578 37.8969 339.79 37.7542 338.997 37.7708H314.997C314.205 37.7875 313.417 37.6448 312.682 37.3512C311.946 37.0577 311.278 36.6194 310.717 36.0628C310.157 35.5061 309.716 34.8426 309.42 34.1122C309.124 33.3818 308.981 32.5995 308.997 31.8125V25.8542C308.981 25.0671 309.124 24.2849 309.42 23.5545C309.716 22.824 310.157 22.1605 310.717 21.6039C311.278 21.0473 311.946 20.609 312.682 20.3155C313.417 20.0219 314.205 19.8792 314.997 19.8958H350.997" stroke="#FF023F" stroke-width="2" stroke-linejoin="round"/>
<path d="M30.4805 34.3955H58.1888" stroke="#FF023F" stroke-width="2" stroke-linejoin="round"/>
<path d="M30.4805 45.4785H36.0221" stroke="#FF023F" stroke-width="2" stroke-linejoin="round"/>
<path d="M41.5625 45.4785H47.1042" stroke="#FF023F" stroke-width="2" stroke-linejoin="round"/>
<path d="M116.375 139.687C116.375 141.157 115.791 142.566 114.752 143.606C113.713 144.645 112.303 145.229 110.833 145.229H22.1667C20.6969 145.229 19.2874 144.645 18.2481 143.606C17.2089 142.566 16.625 141.157 16.625 139.687V23.3122C16.625 21.8424 17.2089 20.4329 18.2481 19.3936C19.2874 18.3544 20.6969 17.7705 22.1667 17.7705H94.2083L116.375 39.9372V139.687Z" stroke="#FF023F" stroke-width="2" stroke-linejoin="round"/>
<path d="M105.29 39.9372H99.7487C98.279 39.9372 96.8694 39.3533 95.8301 38.3141C94.7909 37.2748 94.207 35.8652 94.207 34.3955V17.7705" stroke="#FF023F" stroke-width="2" stroke-linejoin="round"/>
<path d="M73.8639 74.1376C70.7638 71.0376 66.8141 68.9266 62.5142 68.0714C58.2143 67.2161 53.7574 67.6552 49.707 69.333C45.6567 71.0107 42.1948 73.8519 39.7591 77.4972C37.3235 81.1424 36.0234 85.4281 36.0234 89.8122C36.0234 94.1963 37.3235 98.4819 39.7591 102.127C42.1948 105.772 45.6567 108.614 49.707 110.291C53.7574 111.969 58.2143 112.408 62.5142 111.553C66.8141 110.698 70.7638 108.587 73.8639 105.487L58.1893 89.8122L73.8639 74.1376Z" stroke="#FF023F" stroke-width="2" stroke-linejoin="round"/>
<path d="M83.125 89.8125H88.6667" stroke="#FF023F" stroke-width="2" stroke-linejoin="round"/>
<path d="M72.043 89.8125H77.5846" stroke="#FF023F" stroke-width="2" stroke-linejoin="round"/>
<path d="M94.207 89.8125H99.7487" stroke="#FF023F" stroke-width="2" stroke-linejoin="round"/>
<path d="M666.733 124.691V136.238H626.258V124.691" stroke="#FF023F" stroke-width="2" stroke-linejoin="round"/>
<path d="M675.407 136.237V144.897C675.407 145.663 675.103 146.397 674.56 146.938C674.018 147.48 673.283 147.784 672.516 147.784H620.477C619.71 147.784 618.975 147.48 618.433 146.938C617.891 146.397 617.586 145.663 617.586 144.897V136.237H675.407Z" stroke="#FF023F" stroke-width="2" stroke-linejoin="round"/>
<path d="M686.972 113.145H707.21C708.743 113.145 710.214 112.536 711.298 111.454C712.383 110.371 712.992 108.903 712.992 107.371V20.7732C712.992 19.2421 712.383 17.7736 711.298 16.6909C710.214 15.6082 708.743 15 707.21 15H663.844" stroke="#FF023F" stroke-width="2" stroke-linejoin="round"/>
<path d="M606.02 113.145H585.782C584.249 113.145 582.778 112.536 581.694 111.454C580.609 110.371 580 108.903 580 107.371V20.7732C580 19.2421 580.609 17.7736 581.694 16.6909C582.778 15.6082 584.249 15 585.782 15H629.148" stroke="#FF023F" stroke-width="2" stroke-linejoin="round"/>
<path d="M608.91 147.784H684.078" stroke="#FF023F" stroke-width="2" stroke-linejoin="round"/>
<path d="M686.967 98.7122H698.532V29.4336H669.621" stroke="#FF023F" stroke-width="2" stroke-linejoin="round"/>
<path d="M606.017 98.7122H594.453V29.4336H623.364" stroke="#FF023F" stroke-width="2" stroke-linejoin="round"/>
<path d="M617.584 40.9795H606.02V52.5259" stroke="#FF023F" stroke-width="2" stroke-linejoin="round"/>
<path d="M646.498 15L634.934 26.5464V75.6188C634.934 76.3844 635.238 77.1186 635.78 77.6599C636.323 78.2013 637.058 78.5054 637.825 78.5054H655.171C655.938 78.5054 656.673 78.2013 657.215 77.6599C657.758 77.1186 658.062 76.3844 658.062 75.6188V26.5464L646.498 15Z" stroke="#FF023F" stroke-width="2" stroke-linejoin="round"/>
<path d="M658.059 37.9141L678.296 61.1859V69.8457H658.059" stroke="#FF023F" stroke-width="2" stroke-linejoin="round"/>
<path d="M634.929 37.9141L614.691 61.1859V69.8457H634.929" stroke="#FF023F" stroke-width="2" stroke-linejoin="round"/>
<path d="M652.279 78.5059H640.715V87.1657H652.279V78.5059Z" stroke="#FF023F" stroke-width="2" stroke-linejoin="round"/>
<path d="M640.712 95.8252V101.598C640.737 102.742 640.529 103.879 640.102 104.941C639.675 106.003 639.037 106.967 638.227 107.776C637.416 108.585 636.45 109.222 635.387 109.649C634.324 110.075 633.185 110.283 632.039 110.258H626.257C625.111 110.234 623.973 110.441 622.909 110.868C621.846 111.294 620.88 111.931 620.07 112.74C619.26 113.549 618.622 114.514 618.194 115.575C617.767 116.637 617.56 117.774 617.584 118.918V121.805" stroke="#FF023F" stroke-width="2" stroke-linejoin="round"/>
<path d="M652.279 95.8252V101.598C652.255 102.742 652.462 103.879 652.89 104.941C653.317 106.003 653.955 106.967 654.765 107.776C655.575 108.585 656.541 109.222 657.605 109.649C658.668 110.075 659.807 110.283 660.952 110.258H666.735C667.88 110.234 669.019 110.441 670.082 110.868C671.146 111.294 672.112 111.931 672.922 112.74C673.732 113.549 674.37 114.514 674.797 115.575C675.225 116.637 675.432 117.774 675.408 118.918V121.805" stroke="#FF023F" stroke-width="2" stroke-linejoin="round"/>
<path d="M634.934 32.3193H658.062" stroke="#FF023F" stroke-width="2" stroke-linejoin="round"/>
<path d="M646.496 40.9795V69.8456" stroke="#FF023F" stroke-width="2" stroke-linejoin="round"/>
<path d="M623.367 92.9395H629.149" stroke="#FF023F" stroke-width="2" stroke-linejoin="round"/>
<path d="M611.805 98.7119H617.587" stroke="#FF023F" stroke-width="2" stroke-linejoin="round"/>
<path d="M663.844 92.9395H669.626" stroke="#FF023F" stroke-width="2" stroke-linejoin="round"/>
<path d="M675.402 98.7119H681.184" stroke="#FF023F" stroke-width="2" stroke-linejoin="round"/>
<path d="M970.69 44.824C967.01 41.646 964.391 37.4185 963.182 32.7089C961.974 27.9993 962.235 23.0328 963.931 18.4758C965.626 13.9188 968.675 9.98943 972.668 7.21482C976.66 4.4402 981.406 2.95313 986.268 2.95312C991.13 2.95313 995.876 4.4402 999.869 7.21482C1003.86 9.98943 1006.91 13.9188 1008.61 18.4758C1010.3 23.0328 1010.56 27.9993 1009.35 32.7089C1008.15 37.4185 1005.53 41.646 1001.85 44.824C1002.49 44.9691 1003.07 45.3289 1003.49 45.8449C1003.91 46.3609 1004.14 47.0027 1004.14 47.6661V125.124C1004.14 125.915 1003.83 126.672 1003.27 127.231C1002.71 127.79 1001.95 128.104 1001.16 128.104H971.372C970.582 128.104 969.824 127.79 969.266 127.231C968.707 126.672 968.393 125.915 968.393 125.124V47.6661C968.399 47.0027 968.63 46.3609 969.047 45.8449C969.464 45.3289 970.043 44.9691 970.69 44.824Z" stroke="#FF023F" stroke-width="2" stroke-linejoin="round"/>
<path d="M980.31 134.062V140.021H992.227V134.062" stroke="#FF023F" stroke-width="2" stroke-linejoin="round"/>
<path d="M1013.08 53.625H959.457" stroke="#FF023F" stroke-width="2" stroke-linejoin="round"/>
<path d="M998.188 26.8122C998.188 23.6517 996.932 20.6206 994.697 18.3858C992.462 16.151 989.431 14.8955 986.271 14.8955" stroke="#FF023F" stroke-width="2" stroke-linejoin="round"/>
<path d="M986.268 77.4586C982.978 77.4586 980.31 74.791 980.31 71.5003C980.31 68.2096 982.978 65.542 986.268 65.542C989.559 65.542 992.227 68.2096 992.227 71.5003C992.227 74.791 989.559 77.4586 986.268 77.4586Z" stroke="#FF023F" stroke-width="2" stroke-linejoin="round"/>
<path d="M986.268 101.292C982.978 101.292 980.31 98.624 980.31 95.3333C980.31 92.0426 982.978 89.375 986.268 89.375C989.559 89.375 992.227 92.0426 992.227 95.3333C992.227 98.624 989.559 101.292 986.268 101.292Z" stroke="#FF023F" stroke-width="2" stroke-linejoin="round"/>
<path d="M995.207 116.188H989.249" stroke="#FF023F" stroke-width="2" stroke-linejoin="round"/>
<path d="M983.289 116.188H977.331" stroke="#FF023F" stroke-width="2" stroke-linejoin="round"/>
<path d="M971.372 44.6875H983.289" stroke="#FF023F" stroke-width="2" stroke-linejoin="round"/>
<path d="M905.151 44.824C901.471 41.646 898.852 37.4185 897.643 32.7089C896.435 27.9993 896.696 23.0328 898.392 18.4758C900.087 13.9188 903.136 9.98943 907.128 7.21482C911.121 4.4402 915.867 2.95313 920.729 2.95312C925.591 2.95313 930.337 4.4402 934.33 7.21482C938.323 9.98943 941.371 13.9188 943.067 18.4758C944.762 23.0328 945.023 27.9993 943.815 32.7089C942.607 37.4185 939.987 41.646 936.307 44.824C936.955 44.9691 937.534 45.3289 937.951 45.8449C938.368 46.3609 938.598 47.0027 938.604 47.6661V125.124C938.604 125.915 938.29 126.672 937.732 127.231C937.173 127.79 936.415 128.104 935.625 128.104H905.833C905.043 128.104 904.285 127.79 903.727 127.231C903.168 126.672 902.854 125.915 902.854 125.124V47.6661C902.86 47.0027 903.091 46.3609 903.508 45.8449C903.925 45.3289 904.504 44.9691 905.151 44.824V44.824Z" stroke="#FF023F" stroke-width="2" stroke-linejoin="round"/>
<path d="M914.771 134.062V140.021H926.688V134.062" stroke="#FF023F" stroke-width="2" stroke-linejoin="round"/>
<path d="M947.539 53.625H893.914" stroke="#FF023F" stroke-width="2" stroke-linejoin="round"/>
<path d="M932.645 26.8122C932.645 23.6517 931.389 20.6206 929.154 18.3858C926.919 16.151 923.888 14.8955 920.728 14.8955" stroke="#FF023F" stroke-width="2" stroke-linejoin="round"/>
<path d="M920.729 77.4586C917.438 77.4586 914.771 74.791 914.771 71.5003C914.771 68.2096 917.438 65.542 920.729 65.542C924.02 65.542 926.688 68.2096 926.688 71.5003C926.688 74.791 924.02 77.4586 920.729 77.4586Z" stroke="#FF023F" stroke-width="2" stroke-linejoin="round"/>
<path d="M920.729 101.292C917.438 101.292 914.771 98.624 914.771 95.3333C914.771 92.0426 917.438 89.375 920.729 89.375C924.02 89.375 926.688 92.0426 926.688 95.3333C926.688 98.624 924.02 101.292 920.729 101.292Z" stroke="#FF023F" stroke-width="2" stroke-linejoin="round"/>
<path d="M929.664 116.188H923.706" stroke="#FF023F" stroke-width="2" stroke-linejoin="round"/>
<path d="M917.75 116.188H911.792" stroke="#FF023F" stroke-width="2" stroke-linejoin="round"/>
<path d="M905.833 44.6875H917.75" stroke="#FF023F" stroke-width="2" stroke-linejoin="round"/>
</svg>
