<svg width="38" height="65" viewBox="0 0 38 65" fill="none" xmlns="http://www.w3.org/2000/svg">
<path d="M24.9806 1.1178C24.8174 1.03046 24.6331 0.990286 24.4483 1.00199C24.2636 1.01369 24.0858 1.07675 23.9349 1.18398L2.24581 13.5807C1.9011 13.7979 1.61385 14.0954 1.40822 14.4471C1.20259 14.7988 1.08469 15.1946 1.06454 15.6015L1.00287 56.0399C0.98915 56.223 1.02482 56.4061 1.10609 56.5708C1.18735 56.7355 1.31131 56.8756 1.465 56.9762V56.9762L13.0272 63.7649C13.1906 63.8511 13.3747 63.8907 13.5591 63.8784C13.7434 63.8662 13.9208 63.8028 14.0714 63.6957L18.977 60.8943C19.322 60.6771 19.6065 60.3763 19.8041 60.0197C20.017 59.6728 20.1379 59.2772 20.1553 58.8706L20.1782 43.604L33.1775 36.1775C33.5223 35.96 33.8067 35.6586 34.0046 35.3021C34.2176 34.9553 34.3386 34.5604 34.3558 34.1538V29.1444C34.3664 28.9647 34.3292 28.7854 34.2481 28.6247C34.1669 28.464 34.0446 28.328 33.8937 28.2299L24.1735 22.5218L35.8097 15.873C36.1577 15.6603 36.4451 15.3617 36.6445 15.0059C36.8563 14.6567 36.9746 14.2589 36.988 13.8507L36.9972 8.84208C37.0107 8.65896 36.975 8.47505 36.8938 8.31039C36.8125 8.14572 36.6886 8.00644 36.5351 7.90578L24.9744 1.12833L24.9806 1.1178ZM13.3537 63.1986L2.57239 56.8679L7.24223 54.2018L13.1411 57.6658L18.1514 60.6078L13.7388 63.1279C13.6849 63.1696 13.6217 63.1976 13.5547 63.2099C13.4877 63.2222 13.4189 63.2184 13.3537 63.1986V63.1986ZM18.7937 60.2197L14.6736 57.7996L7.82432 53.7769C7.82432 53.7769 7.83527 53.7628 7.84143 53.7566C7.89379 53.7027 7.9415 53.6429 7.99541 53.5844C8.01543 53.5582 8.03536 53.5369 8.05538 53.5122C8.12283 53.4224 8.18501 53.3286 8.2417 53.2317C8.29866 53.1362 8.35024 53.0376 8.39587 52.9362C8.41128 52.9007 8.42206 52.8655 8.43592 52.8301C8.4621 52.7639 8.48659 52.6993 8.50661 52.6346C8.50661 52.6269 8.50677 52.6175 8.51601 52.6083L14.0283 55.8421L19.4837 59.0458C19.3854 59.5008 19.1435 59.9126 18.7937 60.2197V60.2197ZM21.4443 29.4835L27.5513 33.0708L32.3535 35.8895L19.8471 43.0354L8.93942 36.6348L9.24757 36.4625L21.4443 29.4835ZM8.5884 51.8931L8.60062 43.4468L8.60983 37.2033L19.5145 43.6025L19.4929 58.2975L8.5884 51.8931ZM32.9942 35.5044L28.8711 33.0828L22.0234 29.0616C22.0286 29.0551 22.0344 29.0486 22.0405 29.0428C22.0898 28.9905 22.1358 28.9336 22.182 28.8766C22.2051 28.8489 22.2299 28.8232 22.2514 28.7939C22.3115 28.7138 22.3669 28.629 22.4193 28.5427C22.4193 28.5335 22.4316 28.5256 22.4362 28.5164C22.4932 28.4209 22.5446 28.3223 22.5902 28.2209C22.6056 28.187 22.6164 28.1525 22.6288 28.1186C22.6549 28.0493 22.6826 27.9818 22.7026 27.914L22.7104 27.8907L28.2227 31.1253L33.6795 34.3305C33.5822 34.7845 33.3427 35.1959 32.9957 35.5044H32.9942ZM33.7012 29.1481V33.5807L22.7966 27.1778V22.476L33.5641 28.7902C33.6151 28.8336 33.6542 28.8898 33.6777 28.9526C33.7011 29.0154 33.7082 29.0834 33.6981 29.1496L33.7012 29.1481ZM29.98 12.6429L34.9888 15.5849L23.5205 22.1383L22.3345 21.4434L22.2945 21.4238C22.2309 21.3925 22.1636 21.3694 22.0942 21.3547L22.0435 21.3449C21.9759 21.333 21.9071 21.3287 21.8385 21.3313H21.8201C21.7421 21.3373 21.6651 21.352 21.5906 21.3757L21.5353 21.3915C21.4542 21.418 21.3757 21.4519 21.301 21.493L18.2206 23.2506L8.97946 17.823L21.147 10.8673L24.0934 9.18351L29.98 12.6429ZM28.7017 9.56255L36.3164 14.029C36.2342 14.4879 35.9926 14.9033 35.6341 15.2014L28.8234 11.1967L24.6649 8.75409C24.6716 8.74794 24.6777 8.74096 24.6833 8.73379C24.7357 8.67988 24.785 8.6216 24.8373 8.56307C24.8574 8.53689 24.8805 8.51556 24.9005 8.48937C25.035 8.31253 25.1477 8.12006 25.2363 7.91631C25.2471 7.89013 25.2548 7.86203 25.2656 7.83584C25.2949 7.76192 25.3225 7.68183 25.344 7.61098C25.344 7.60328 25.3442 7.59462 25.3534 7.58692L28.7017 9.56255ZM36.2102 8.48486C36.26 8.53081 36.2979 8.58797 36.3207 8.65182C36.3435 8.71566 36.3505 8.78398 36.341 8.85111L36.3333 13.2882L30.6901 9.97542L25.4273 6.8845L25.435 2.1624L36.2102 8.48486ZM24.648 1.69838C24.659 1.70787 24.6692 1.7182 24.6786 1.72922C24.6875 1.73625 24.6959 1.74419 24.7035 1.75253C24.7103 1.76452 24.7164 1.77674 24.7219 1.78938C24.7304 1.80252 24.7377 1.81622 24.7435 1.83074C24.7435 1.83844 24.7435 1.85083 24.7435 1.86007C24.7616 1.92525 24.7704 1.99248 24.7696 2.06012L24.7604 7.07101C24.7407 7.44368 24.6068 7.80056 24.3769 8.09455C24.2531 8.26681 24.0959 8.41291 23.9148 8.52322L8.14168 17.5395C8.11667 17.5543 8.09335 17.5714 8.07231 17.5914C8.03727 17.627 8.01103 17.6703 7.99541 17.7178C7.99541 17.7178 7.99544 17.7319 7.9862 17.7381C7.97695 17.7442 7.9862 17.7581 7.9862 17.7674C7.98195 17.7856 7.97937 17.8044 7.97849 17.823V17.823L7.95987 29.3046C7.95949 29.3622 7.97444 29.4192 8.00312 29.4693C8.03179 29.5193 8.0733 29.5607 8.12326 29.5896C8.17313 29.6184 8.22962 29.634 8.2872 29.634C8.34479 29.634 8.40147 29.6184 8.45134 29.5896L21.6122 22.0676C21.7939 21.9644 21.9542 21.9616 22.042 22.0571C22.0593 22.0757 22.0742 22.0957 22.0865 22.118C22.1212 22.1954 22.1375 22.2799 22.1343 22.3647V27.3703C22.0875 27.8405 21.8797 28.2803 21.546 28.6149C21.4695 28.6964 21.3825 28.7677 21.2873 28.8263L8.12476 36.3512C8.07447 36.3801 8.03257 36.4217 8.00312 36.4716C7.97945 36.5153 7.96577 36.5633 7.96307 36.613C7.96307 36.613 7.96307 36.6286 7.96307 36.6348L7.93844 52.0841C7.93743 52.1487 7.93064 52.2131 7.91832 52.2766C7.87236 52.4983 7.78968 52.711 7.67353 52.9053C7.59582 53.0383 7.50497 53.1634 7.40242 53.2783C7.31387 53.3806 7.20983 53.4683 7.09427 53.5385L2.18885 56.3399C2.13512 56.3819 2.07215 56.4101 2.00516 56.4226C1.93817 56.4352 1.8691 56.4317 1.8038 56.4121C1.75392 56.3659 1.71585 56.3085 1.69306 56.2444C1.67026 56.1803 1.66348 56.1117 1.67294 56.0444L1.73442 15.6068C1.74924 15.3124 1.83767 15.0263 1.99162 14.775C2.13302 14.5221 2.33727 14.3093 2.58461 14.1583L24.2737 1.76306C24.4369 1.66911 24.5817 1.64161 24.6587 1.68936L24.648 1.69838ZM8.63916 18.4006L17.5569 23.6371L8.62374 28.7428L8.63916 18.4006Z" fill="#FF023F" stroke="#FF023F" stroke-width="0.5"/>
</svg>
