<svg width="122" height="212" viewBox="0 0 122 212" fill="none" xmlns="http://www.w3.org/2000/svg">
<path d="M80.9353 1.39342C80.3913 1.10172 79.7769 0.967559 79.1611 1.00663C78.5453 1.04571 77.9526 1.25631 77.4496 1.61444L5.15272 43.0154C4.00366 43.7408 3.04616 44.7341 2.36074 45.9087C1.67531 47.0834 1.2823 48.405 1.21512 49.764L1.00956 184.814C0.963833 185.426 1.08274 186.038 1.35362 186.588C1.6245 187.138 2.0377 187.606 2.55 187.941V187.941L41.0906 210.613C41.6353 210.901 42.2489 211.034 42.8635 210.993C43.4781 210.952 44.0694 210.74 44.5713 210.382L60.9233 201.027C62.0733 200.301 63.0216 199.297 63.6802 198.106C64.3901 196.947 64.7931 195.626 64.8509 194.268L64.9274 143.283L108.258 118.481C109.408 117.755 110.356 116.748 111.015 115.558C111.725 114.399 112.129 113.08 112.186 111.722V94.9927C112.221 94.3925 112.097 93.7938 111.827 93.2571C111.556 92.7205 111.149 92.2663 110.646 91.9386L78.2449 72.8756L117.032 50.6707C118.192 49.9603 119.15 48.9631 119.815 47.7749C120.521 46.6087 120.915 45.2801 120.96 43.9171L120.991 27.1899C121.036 26.5783 120.917 25.9641 120.646 25.4142C120.375 24.8643 119.962 24.3991 119.45 24.063L80.9146 1.42858L80.9353 1.39342ZM42.1792 208.722L6.24131 187.58L21.8074 178.676L41.4704 190.245L58.1715 200.07L43.4627 208.486C43.2831 208.625 43.0724 208.719 42.8491 208.76C42.6258 208.801 42.3964 208.788 42.1792 208.722V208.722ZM60.3123 198.774L46.5786 190.692L23.7477 177.257C23.7477 177.257 23.7842 177.21 23.8048 177.189C23.9793 177.009 24.1383 176.81 24.318 176.614C24.3848 176.527 24.4512 176.455 24.5179 176.373C24.7428 176.073 24.95 175.76 25.139 175.436C25.3289 175.117 25.5008 174.788 25.6529 174.449C25.7043 174.331 25.7402 174.213 25.7864 174.095C25.8737 173.874 25.9553 173.658 26.022 173.442C26.022 173.416 26.0226 173.385 26.0534 173.354L44.4278 184.154L62.6123 194.853C62.2848 196.373 61.4785 197.748 60.3123 198.774V198.774ZM69.1476 96.1254L89.5043 108.106L105.512 117.519L63.8237 141.384L27.4647 120.008L28.4919 119.433L69.1476 96.1254ZM26.2947 170.966L26.3354 142.758L26.3661 121.907L62.7151 143.278L62.643 192.354L26.2947 170.966ZM107.647 116.233L93.9038 108.146L71.0779 94.7164C71.0953 94.6946 71.1147 94.6729 71.1349 94.6536C71.2992 94.4787 71.4528 94.2888 71.6068 94.0985C71.6838 94.0059 71.7662 93.92 71.838 93.8223C72.0383 93.5548 72.2231 93.2714 72.3977 92.9834C72.3977 92.9525 72.4387 92.9263 72.4541 92.8955C72.6441 92.5765 72.8154 92.2473 72.9674 91.9084C73.0187 91.7953 73.0548 91.68 73.0958 91.5668C73.1831 91.3354 73.2754 91.11 73.3421 90.8837L73.3678 90.8058L91.7422 101.608L109.932 112.313C109.607 113.829 108.809 115.203 107.652 116.233H107.647ZM110.004 95.0052V109.808L73.6555 88.4249V72.7224L109.547 93.8097C109.717 93.955 109.847 94.1425 109.926 94.3522C110.004 94.5619 110.027 94.7889 109.994 95.0102L110.004 95.0052ZM97.6001 39.8835L114.296 49.7088L76.0683 71.5947L72.1151 69.274L71.9816 69.2087C71.7696 69.1041 71.5453 69.0267 71.3141 68.9777L71.1449 68.945C70.9196 68.9055 70.6904 68.891 70.4618 68.8998H70.4004C70.1405 68.9196 69.8835 68.9686 69.6352 69.048L69.4509 69.1007C69.1808 69.1891 68.919 69.3024 68.67 69.4398L58.4021 75.3094L27.5982 57.1833L68.1568 33.9536L77.9779 28.3302L97.6001 39.8835ZM93.3391 29.596L118.721 44.5123C118.447 46.0449 117.642 47.4325 116.447 48.4279L93.7446 35.0537L79.8831 26.896C79.9054 26.8755 79.9258 26.8522 79.9445 26.8282C80.1191 26.6482 80.2832 26.4536 80.4578 26.2581C80.5245 26.1707 80.6016 26.0994 80.6683 26.012C81.1166 25.4214 81.4924 24.7786 81.7876 24.0981C81.8236 24.0107 81.8495 23.9168 81.8854 23.8294C81.983 23.5825 82.0749 23.3151 82.1467 23.0784C82.1467 23.0527 82.1473 23.0238 82.1781 22.9981L93.3391 29.596ZM118.367 25.9969C118.533 26.1503 118.66 26.3412 118.736 26.5545C118.812 26.7677 118.835 26.9958 118.803 27.22L118.778 42.0384L99.9671 30.9749L82.4244 20.6522L82.4501 4.88201L118.367 25.9969ZM79.8267 3.33236C79.8634 3.36405 79.8972 3.39854 79.9288 3.43534C79.9582 3.45883 79.9863 3.48533 80.0116 3.51319C80.0342 3.55323 80.0546 3.59405 80.073 3.63626C80.1013 3.68015 80.1256 3.72591 80.145 3.7744C80.145 3.80012 80.145 3.84149 80.145 3.87235C80.2054 4.09001 80.2347 4.31453 80.2322 4.54043L80.2014 21.2751C80.1356 22.5197 79.6892 23.7116 78.923 24.6934C78.5105 25.2687 77.9864 25.7566 77.3825 26.125L24.8056 56.2364C24.7222 56.2857 24.6445 56.3428 24.5744 56.4097C24.4576 56.5286 24.3701 56.6731 24.318 56.8316C24.318 56.8316 24.3181 56.8789 24.2873 56.8994C24.2565 56.92 24.2873 56.9665 24.2873 56.9974C24.2732 57.0582 24.2646 57.1209 24.2616 57.1833V57.1833L24.1996 95.5276C24.1983 95.7203 24.2481 95.9105 24.3437 96.0777C24.4393 96.2448 24.5777 96.3832 24.7442 96.4795C24.9104 96.5757 25.0987 96.6277 25.2907 96.6277C25.4826 96.6277 25.6716 96.5757 25.8378 96.4795L69.7072 71.3586C70.3131 71.014 70.8473 71.0046 71.1399 71.3235C71.1978 71.3856 71.2475 71.4524 71.2884 71.5269C71.4039 71.7853 71.4584 72.0678 71.4476 72.3507V89.0678C71.2916 90.6383 70.599 92.107 69.4866 93.2245C69.2316 93.4966 68.9417 93.7347 68.6243 93.9303L24.7492 119.061C24.5816 119.157 24.4419 119.296 24.3437 119.463C24.2648 119.609 24.2192 119.77 24.2102 119.935C24.2102 119.935 24.2102 119.987 24.2102 120.008L24.1281 171.604C24.1248 171.819 24.1021 172.035 24.0611 172.246C23.9079 172.987 23.6323 173.697 23.2451 174.346C22.9861 174.79 22.6832 175.208 22.3414 175.592C22.0462 175.933 21.6994 176.226 21.3142 176.461L4.96282 185.817C4.78372 185.957 4.57384 186.051 4.35053 186.093C4.12722 186.135 3.89698 186.123 3.67933 186.058C3.51308 185.903 3.38618 185.712 3.3102 185.498C3.23422 185.284 3.2116 185.055 3.24314 184.83L3.44807 49.7816C3.49748 48.7985 3.79223 47.8432 4.30541 47.0038C4.77673 46.1591 5.45756 45.4484 6.28204 44.9443L78.5789 3.54836C79.1231 3.23459 79.6057 3.14277 79.8624 3.30222L79.8267 3.33236ZM26.4639 59.1121L56.1898 76.6003L26.4125 93.6515L26.4639 59.1121Z" fill="#FF023F" stroke="#FF023F" stroke-width="0.5"/>
</svg>
