<svg width="375" height="630" viewBox="0 0 375 630" fill="none" xmlns="http://www.w3.org/2000/svg">
<path d="M464.722 1H28.2778C13.2127 1 1 13.2127 1 28.2778V601.111C1 616.176 13.2127 628.389 28.2778 628.389H464.722C479.787 628.389 492 616.176 492 601.111V28.2778C492 13.2127 479.787 1 464.722 1Z" stroke="#FF023F" stroke-width="2" stroke-linejoin="round"/>
<path d="M437.44 151.028V55.5557H55.5508V355.611H437.44V260.139" stroke="#FF023F" stroke-width="2" stroke-linejoin="round"/>
<path d="M178.301 464.721H151.023V437.444C151.023 433.826 149.586 430.357 147.028 427.799C144.47 425.242 141.001 423.805 137.384 423.805H110.106C106.489 423.805 103.02 425.242 100.462 427.799C97.9044 430.357 96.4675 433.826 96.4675 437.444V464.721H69.1897C65.5724 464.721 62.1033 466.158 59.5455 468.716C56.9877 471.274 55.5508 474.743 55.5508 478.36V505.638C55.5508 509.255 56.9877 512.724 59.5455 515.282C62.1033 517.84 65.5724 519.277 69.1897 519.277H96.4675V546.555C96.4675 550.172 97.9044 553.641 100.462 556.199C103.02 558.757 106.489 560.194 110.106 560.194H137.384C141.001 560.194 144.47 558.757 147.028 556.199C149.586 553.641 151.023 550.172 151.023 546.555V519.277H178.301C181.918 519.277 185.387 517.84 187.945 515.282C190.503 512.724 191.94 509.255 191.94 505.638V478.36C191.94 474.743 190.503 471.274 187.945 468.716C185.387 466.158 181.918 464.721 178.301 464.721Z" stroke="#FF023F" stroke-width="2" stroke-linejoin="round"/>
<path d="M341.973 573.834C357.038 573.834 369.251 561.621 369.251 546.556C369.251 531.491 357.038 519.278 341.973 519.278C326.908 519.278 314.695 531.491 314.695 546.556C314.695 561.621 326.908 573.834 341.973 573.834Z" stroke="#FF023F" stroke-width="2" stroke-linejoin="round"/>
<path d="M314.688 478.36C329.753 478.36 341.966 466.148 341.966 451.082C341.966 436.017 329.753 423.805 314.688 423.805C299.623 423.805 287.41 436.017 287.41 451.082C287.41 466.148 299.623 478.36 314.688 478.36Z" stroke="#FF023F" stroke-width="2" stroke-linejoin="round"/>
<path d="M369.246 205.584H396.524" stroke="#FF023F" stroke-width="2" stroke-linejoin="round"/>
<path d="M314.695 205.584H341.973" stroke="#FF023F" stroke-width="2" stroke-linejoin="round"/>
<path d="M300.372 138.07C287.02 124.719 270.008 115.627 251.489 111.944C232.969 108.261 213.774 110.152 196.329 117.379C178.884 124.605 163.974 136.842 153.484 152.542C142.994 168.242 137.395 186.7 137.395 205.583C137.395 224.465 142.994 242.923 153.484 258.623C163.974 274.323 178.884 286.56 196.329 293.787C213.774 301.013 232.969 302.904 251.489 299.221C270.008 295.538 287.02 286.446 300.372 273.095L232.86 205.583L300.372 138.07Z" stroke="#FF023F" stroke-width="2" stroke-linejoin="round"/>
</svg>
