<svg width="527" height="528" viewBox="0 0 527 528" fill="none" xmlns="http://www.w3.org/2000/svg">
<path d="M494.064 286H32.9388C27.1151 286 21.5299 288.318 17.4119 292.444C13.2939 296.569 10.9805 302.165 10.9805 308V418C10.9805 423.835 13.2939 429.431 17.4119 433.556C21.5299 437.682 27.1151 440 32.9388 440H43.918V484H483.085V440H494.064C499.888 440 505.473 437.682 509.591 433.556C513.709 429.431 516.022 423.835 516.022 418V308C516.022 302.165 513.709 296.569 509.591 292.444C505.473 288.318 499.888 286 494.064 286Z" stroke="#FF023F" stroke-width="2" stroke-linejoin="round"/>
<path d="M43.918 440H450.147" stroke="#FF023F" stroke-width="2" stroke-linejoin="round"/>
<path d="M54.8984 407V330H208.607V407" stroke="#FF023F" stroke-width="2" stroke-linejoin="round"/>
<path d="M274.482 385C286.609 385 296.44 375.15 296.44 363C296.44 350.85 286.609 341 274.482 341C262.355 341 252.523 350.85 252.523 363C252.523 375.15 262.355 385 274.482 385Z" stroke="#FF023F" stroke-width="2" stroke-linejoin="round"/>
<path d="M362.314 385C374.441 385 384.272 375.15 384.272 363C384.272 350.85 374.441 341 362.314 341C350.187 341 340.355 350.85 340.355 363C340.355 375.15 350.187 385 362.314 385Z" stroke="#FF023F" stroke-width="2" stroke-linejoin="round"/>
<path d="M450.146 385C462.273 385 472.104 375.15 472.104 363C472.104 350.85 462.273 341 450.146 341C438.019 341 428.188 350.85 428.188 363C428.188 375.15 438.019 385 450.146 385Z" stroke="#FF023F" stroke-width="2" stroke-linejoin="round"/>
<path d="M153.71 231.001V149.359C165.269 144.305 174.738 135.417 180.526 124.191C186.313 112.964 188.066 100.083 185.489 87.7141C182.913 75.345 176.163 64.2419 166.377 56.2719C156.59 48.3019 144.363 43.9512 131.751 43.9512C119.14 43.9512 106.912 48.3019 97.1258 56.2719C87.3393 64.2419 80.5902 75.345 78.0135 87.7141C75.4368 100.083 77.1896 112.964 82.9772 124.191C88.7648 135.417 98.2342 144.305 109.793 149.359V231.001" stroke="#FF023F" stroke-width="2" stroke-linejoin="round"/>
<path d="M197.625 286H65.875L76.8542 253H186.646L197.625 286Z" stroke="#FF023F" stroke-width="2" stroke-linejoin="round"/>
<path d="M340.357 286V264C340.357 261.083 339.2 258.285 337.141 256.222C335.082 254.159 332.289 253 329.378 253H263.503C260.591 253 257.798 254.159 255.739 256.222C253.68 258.285 252.523 261.083 252.523 264V286" stroke="#FF023F" stroke-width="2" stroke-linejoin="round"/>
<path d="M472.107 286V264C472.107 261.083 470.95 258.285 468.891 256.222C466.832 254.159 464.039 253 461.128 253H395.253C392.341 253 389.548 254.159 387.489 256.222C385.43 258.285 384.273 261.083 384.273 264V286" stroke="#FF023F" stroke-width="2" stroke-linejoin="round"/>
<path d="M98.8125 374H120.771" stroke="#FF023F" stroke-width="2" stroke-linejoin="round"/>
<path d="M142.73 374H164.689" stroke="#FF023F" stroke-width="2" stroke-linejoin="round"/>
</svg>
