<svg width="143" height="22" viewBox="0 0 143 22" fill="none" xmlns="http://www.w3.org/2000/svg">
<path d="M11.95 10.25V10.775C11.95 13.325 10.15 15.5 7.325 15.5C3.975 15.5 2 12.5 2 8.775C2 5.05 3.975 2.05 7.325 2.05C8.8 2.05 9.925 2.625 10.825 3.55C11.1 3.825 11.375 4 11.725 4C12.175 4 12.55 3.675 12.55 3.125C12.55 2.8 12.4 2.525 12.2 2.3C11.075 1.1 9.425 0.25 7.325 0.25C2.8 0.25 0.15 4.15 0.15 8.775C0.15 13.4 2.8 17.3 7.325 17.3C11.5 17.3 13.8 14.025 13.8 10.8V9.375C13.8 8.825 13.425 8.45 12.875 8.45H8.6C7.975 8.45 7.575 8.85 7.575 9.35C7.575 9.85 7.975 10.25 8.6 10.25H11.95ZM23.3889 11.725V12.025C23.3889 14 22.2139 15.55 20.1639 15.55C18.8389 15.55 17.9389 14.875 17.9389 13.675C17.9389 11.775 20.2139 11.725 21.7139 11.725H23.3889ZM23.5889 15.475C23.9639 16.625 24.7889 17.175 26.0139 17.175C26.6139 17.175 27.0139 16.775 27.0139 16.3C27.0139 15.825 26.6139 15.425 26.0139 15.425C25.4639 15.425 25.1889 14.95 25.1889 14V9.25C25.1889 6.3 23.2889 5.05 20.8889 5.05C19.5139 5.05 18.2889 5.45 17.3889 6.3C17.1389 6.55 16.9639 6.775 16.9639 7.175C16.9639 7.725 17.3389 8 17.7889 8C18.0639 8 18.2639 7.9 18.4639 7.75C18.9139 7.4 19.3389 6.8 20.7389 6.8C22.1889 6.8 23.3889 7.45 23.3889 9.325V9.975H21.7139C19.3639 9.975 16.1139 10.425 16.1139 13.65C16.1139 15.9 17.7389 17.3 20.0889 17.3C21.7889 17.3 22.9639 16.55 23.5889 15.475ZM37.6139 7.275C36.9389 5.85 35.7389 5.05 34.1639 5.05C32.8389 5.05 31.8639 5.625 31.1639 6.675V6.2C31.1639 5.575 30.7639 5.175 30.2639 5.175C29.7639 5.175 29.3639 5.575 29.3639 6.2V16.15C29.3639 16.775 29.7639 17.175 30.2639 17.175C30.7389 17.175 31.1639 16.775 31.1639 16.15V10.325C31.1639 8.325 32.3639 6.8 34.0389 6.8C35.3889 6.8 36.5639 7.75 36.5639 10.425V16.15C36.5639 16.775 36.9639 17.175 37.4639 17.175C37.9639 17.175 38.3639 16.775 38.3639 16.15V10.325C38.3639 8.325 39.5639 6.8 41.2389 6.8C42.5889 6.8 43.7639 7.75 43.7639 10.425V16.15C43.7639 16.775 44.1639 17.175 44.6639 17.175C45.1639 17.175 45.5639 16.775 45.5639 16.15V10.35C45.5639 7.05 44.0889 5.05 41.3389 5.05C39.6639 5.05 38.4639 5.775 37.6139 7.275ZM50.0928 10.325C50.3178 8.3 51.4178 6.8 53.2678 6.8C55.1178 6.8 56.2428 8.3 56.4678 10.325H50.0928ZM50.1178 12.075H57.4178C57.9678 12.075 58.3178 11.725 58.3178 11.175C58.3178 7.85 56.4678 5.05 53.2678 5.05C50.0928 5.05 48.2428 7.85 48.2428 11.175C48.2428 14.5 50.0928 17.3 53.5428 17.3C54.8928 17.3 56.0678 16.825 56.8928 16.075C57.1178 15.875 57.3428 15.6 57.3428 15.175C57.3428 14.675 57.0178 14.35 56.5178 14.35C56.1678 14.35 55.8928 14.55 55.6178 14.8C55.1428 15.225 54.4678 15.55 53.5178 15.55C51.2428 15.55 50.2928 13.7 50.1178 12.075ZM67.7646 15.2V9.35H72.3896C73.0146 9.35 73.4146 8.95 73.4146 8.45C73.4146 7.95 73.0146 7.55 72.3896 7.55H67.7646V2.35H75.0396C75.6646 2.35 76.0646 1.95 76.0646 1.45C76.0646 0.95 75.6646 0.549999 75.0396 0.549999H66.8396C66.2896 0.549999 65.9146 0.925 65.9146 1.475V16.075C65.9146 16.625 66.2896 17 66.8396 17H75.1896C75.8146 17 76.2146 16.6 76.2146 16.1C76.2146 15.6 75.8146 15.2 75.1896 15.2H67.7646ZM80.5535 6.75V6.2C80.5535 5.575 80.1535 5.175 79.6535 5.175C79.1535 5.175 78.7535 5.575 78.7535 6.2V16.15C78.7535 16.775 79.1535 17.175 79.6535 17.175C80.1285 17.175 80.5535 16.775 80.5535 16.15V10.325C80.5535 8.325 81.8785 6.8 83.5285 6.8C85.1285 6.8 86.3285 7.75 86.3285 10.425V16.15C86.3285 16.775 86.7285 17.175 87.2285 17.175C87.7285 17.175 88.1285 16.775 88.1285 16.15V10.35C88.1285 7.05 86.6035 5.05 83.6535 5.05C82.3035 5.05 81.2535 5.675 80.5535 6.75ZM95.8465 15.3C93.8215 15.3 92.5965 13.45 92.5965 11.05C92.5965 8.65 93.8215 6.8 95.8465 6.8C97.8715 6.8 99.0965 8.7 99.0965 11.05C99.0965 13.4 97.8715 15.3 95.8465 15.3ZM99.0465 15.35V16.35C99.0465 18.675 98.2465 20.05 96.0465 20.05C94.5215 20.05 93.7965 19.325 93.3715 19C93.1215 18.8 92.8965 18.675 92.5965 18.675C92.1215 18.675 91.7965 19 91.7965 19.475C91.7965 19.8 91.9465 20.1 92.1465 20.325C92.8215 21.1 94.4215 21.75 96.1715 21.75C99.2215 21.75 100.846 19.75 100.846 16.45V6.2C100.846 5.575 100.446 5.175 99.9465 5.175C99.4465 5.175 99.0465 5.575 99.0465 6.2V6.75C98.3465 5.675 97.0965 5.05 95.7215 5.05C92.5965 5.05 90.7965 7.825 90.7965 11.05C90.7965 14.275 92.5965 17.05 95.7215 17.05C97.0965 17.05 98.3465 16.425 99.0465 15.35ZM105.288 2.825C105.913 2.825 106.438 2.3 106.438 1.675C106.438 1.05 105.913 0.524999 105.288 0.524999C104.663 0.524999 104.138 1.05 104.138 1.675C104.138 2.3 104.663 2.825 105.288 2.825ZM105.288 17.175C105.788 17.175 106.188 16.775 106.188 16.15V6.2C106.188 5.575 105.788 5.175 105.288 5.175C104.788 5.175 104.388 5.575 104.388 6.2V16.15C104.388 16.775 104.788 17.175 105.288 17.175ZM111.535 6.75V6.2C111.535 5.575 111.135 5.175 110.635 5.175C110.135 5.175 109.735 5.575 109.735 6.2V16.15C109.735 16.775 110.135 17.175 110.635 17.175C111.11 17.175 111.535 16.775 111.535 16.15V10.325C111.535 8.325 112.86 6.8 114.51 6.8C116.11 6.8 117.31 7.75 117.31 10.425V16.15C117.31 16.775 117.71 17.175 118.21 17.175C118.71 17.175 119.11 16.775 119.11 16.15V10.35C119.11 7.05 117.585 5.05 114.635 5.05C113.285 5.05 112.235 5.675 111.535 6.75ZM123.628 10.325C123.853 8.3 124.953 6.8 126.803 6.8C128.653 6.8 129.778 8.3 130.003 10.325H123.628ZM123.653 12.075H130.953C131.503 12.075 131.853 11.725 131.853 11.175C131.853 7.85 130.003 5.05 126.803 5.05C123.628 5.05 121.778 7.85 121.778 11.175C121.778 14.5 123.628 17.3 127.078 17.3C128.428 17.3 129.603 16.825 130.428 16.075C130.653 15.875 130.878 15.6 130.878 15.175C130.878 14.675 130.553 14.35 130.053 14.35C129.703 14.35 129.428 14.55 129.153 14.8C128.678 15.225 128.003 15.55 127.053 15.55C124.778 15.55 123.828 13.7 123.653 12.075ZM137.889 17.3C140.339 17.3 142.039 15.975 142.039 13.8C142.039 11.175 139.639 10.6 138.139 10.25C136.514 9.875 135.814 9.55 135.814 8.4C135.814 7.3 136.464 6.75 137.864 6.75C138.764 6.75 139.264 6.975 139.664 7.225C140.014 7.45 140.289 7.625 140.639 7.625C141.164 7.625 141.439 7.3 141.439 6.825C141.439 6.4 141.214 6.125 140.864 5.875C140.064 5.325 138.964 5.05 137.889 5.05C135.464 5.05 134.014 6.4 134.014 8.475C134.014 11.025 136.114 11.6 137.614 11.95C139.139 12.3 140.239 12.525 140.239 13.775C140.239 14.875 139.464 15.6 137.789 15.6C136.664 15.6 136.014 15.25 135.514 14.825C135.189 14.55 134.964 14.275 134.489 14.275C134.014 14.275 133.689 14.6 133.689 15.075C133.689 15.375 133.814 15.675 134.064 15.925C134.864 16.725 136.264 17.3 137.889 17.3Z" fill="black"/>
</svg>
