<?xml version="1.0" encoding="UTF-8"?>
<svg width="84px" height="64px" viewBox="0 0 84 64" version="1.1" xmlns="http://www.w3.org/2000/svg" xmlns:xlink="http://www.w3.org/1999/xlink">
    <title>Symbols/Menu</title>
    <g id="Page-1" stroke="none" stroke-width="1" fill="none" fill-rule="evenodd">
        <g id="Symbols/Menu" transform="translate(-18.000000, -28.000000)" fill="#000000">
            <path d="M98,84 C100.209139,84 102,85.790861 102,88 C102,90.209139 100.209139,92 98,92 L22,92 C19.790861,92 18,90.209139 18,88 C18,85.790861 19.790861,84 22,84 L98,84 Z M98,56 C100.209139,56 102,57.790861 102,60 C102,62.209139 100.209139,64 98,64 L22,64 C19.790861,64 18,62.209139 18,60 C18,57.790861 19.790861,56 22,56 L98,56 Z M98,28 C100.209139,28 102,29.790861 102,32 C102,34.209139 100.209139,36 98,36 L22,36 C19.790861,36 18,34.209139 18,32 C18,29.790861 19.790861,28 22,28 L98,28 Z" id="Combined-Shape"></path>
        </g>
    </g>
</svg>