<svg width="239" height="194" viewBox="0 0 239 194" fill="none" xmlns="http://www.w3.org/2000/svg">
<path d="M4.928 11.192C7.216 11.192 8.624 9.64 8.624 7.096V0.775999C8.624 0.535999 8.48 0.375999 8.288 0.375999C8.096 0.375999 7.952 0.535999 7.952 0.775999V7.096C7.952 9.352 6.752 10.552 4.928 10.552C3.088 10.552 1.888 9.352 1.888 7.096V0.775999C1.888 0.535999 1.744 0.375999 1.552 0.375999C1.36 0.375999 1.216 0.535999 1.216 0.775999V7.096C1.216 9.64 2.624 11.192 4.928 11.192ZM11.7158 9.544C12.1638 10.536 13.0438 11.192 14.1638 11.192C16.0998 11.192 17.2198 9.416 17.2198 7.32C17.2198 5.224 16.0998 3.448 14.1638 3.448C13.0438 3.448 12.1638 4.104 11.7158 5.096V3.928C11.7158 3.688 11.5718 3.544 11.3798 3.544C11.2038 3.544 11.0598 3.688 11.0598 3.928V13.56C11.0598 13.8 11.2038 13.944 11.3798 13.944C11.5718 13.944 11.7158 13.8 11.7158 13.56V9.544ZM14.1318 10.568C12.6118 10.568 11.6998 9.08 11.6998 7.32C11.6998 5.56 12.6118 4.072 14.1318 4.072C15.6518 4.072 16.5638 5.56 16.5638 7.32C16.5638 9.08 15.6518 10.568 14.1318 10.568ZM21.7771 10.568C20.2571 10.568 19.3451 9.08 19.3451 7.32C19.3451 5.56 20.2571 4.072 21.7771 4.072C23.2971 4.072 24.2091 5.56 24.2091 7.32C24.2091 9.08 23.2971 10.568 21.7771 10.568ZM24.1931 9.544V10.712C24.1931 10.952 24.3371 11.096 24.5291 11.096C24.7051 11.096 24.8491 10.952 24.8491 10.712V0.759999C24.8491 0.52 24.7051 0.375999 24.5291 0.375999C24.3371 0.375999 24.1931 0.52 24.1931 0.759999V5.096C23.7451 4.104 22.8651 3.448 21.7451 3.448C19.8091 3.448 18.6891 5.224 18.6891 7.32C18.6891 9.416 19.8091 11.192 21.7451 11.192C22.8651 11.192 23.7451 10.536 24.1931 9.544ZM31.5985 6.744H30.2065C28.5265 6.744 26.7985 7.176 26.7985 8.952C26.7985 10.28 27.7585 11.192 29.2145 11.192C30.3665 11.192 31.1985 10.616 31.6305 9.816C31.7265 10.504 32.1105 11.096 32.9425 11.096C33.1665 11.096 33.3105 10.952 33.3105 10.792C33.3105 10.616 33.1665 10.472 32.9425 10.472C32.4785 10.472 32.2545 10.088 32.2545 9.304V5.976C32.2545 4.248 31.1665 3.448 29.6945 3.448C28.8945 3.448 28.1425 3.672 27.5345 4.248C27.4065 4.376 27.3585 4.472 27.3585 4.584C27.3585 4.776 27.4705 4.888 27.6465 4.888C27.7905 4.888 27.8865 4.808 27.9505 4.744C28.4145 4.28 29.0065 4.072 29.6785 4.072C30.7505 4.072 31.5985 4.664 31.5985 6.008V6.744ZM31.5985 7.368V8.04C31.5985 9.464 30.6865 10.568 29.2465 10.568C28.1425 10.568 27.4705 9.944 27.4705 8.984C27.4705 7.592 28.8625 7.368 30.2545 7.368H31.5985ZM36.0235 4.264H37.8315C38.0555 4.264 38.1995 4.12 38.1995 3.944C38.1995 3.784 38.0555 3.64 37.8315 3.64H36.0235V1.88C36.0235 1.64 35.8795 1.496 35.6875 1.496C35.5115 1.496 35.3675 1.64 35.3675 1.88V3.64H34.3915C34.1675 3.64 34.0235 3.784 34.0235 3.944C34.0235 4.12 34.1675 4.264 34.3915 4.264H35.3675V8.824C35.3675 10.52 36.0715 11.144 37.2395 11.144C37.4955 11.144 37.8475 11.112 38.0875 11C38.2315 10.936 38.3435 10.824 38.3435 10.664C38.3435 10.488 38.2315 10.376 38.0235 10.376C37.7995 10.376 37.6555 10.52 37.2555 10.52C36.4875 10.52 36.0235 10.056 36.0235 8.824V4.264ZM40.1268 7.016C40.2068 5.336 41.1028 4.072 42.5588 4.072C44.0308 4.072 44.8948 5.352 44.9908 7.016H40.1268ZM44.3508 9.912C43.9668 10.28 43.4388 10.568 42.7188 10.568C41.0868 10.568 40.2068 9.112 40.1268 7.64H45.3268C45.5188 7.64 45.6468 7.512 45.6468 7.32C45.6468 5.176 44.5108 3.448 42.5588 3.448C40.5908 3.448 39.4548 5.224 39.4548 7.32C39.4548 9.416 40.6548 11.192 42.7188 11.192C43.5828 11.192 44.2868 10.888 44.8148 10.376C44.9108 10.28 44.9748 10.184 44.9748 10.056C44.9748 9.88 44.8468 9.752 44.6868 9.752C44.5748 9.752 44.4628 9.8 44.3508 9.912ZM52.623 9.912L50.383 3.864C50.319 3.688 50.223 3.544 50.031 3.544C49.839 3.544 49.727 3.672 49.727 3.848C49.727 3.944 49.759 4.04 49.791 4.136L52.271 10.776L52.143 11.128C51.855 11.928 51.247 12.776 50.191 13.304C50.047 13.384 49.951 13.48 49.951 13.64C49.951 13.816 50.063 13.944 50.271 13.944C50.399 13.944 50.511 13.88 50.623 13.816C51.775 13.192 52.415 12.216 52.735 11.384L55.455 4.136C55.487 4.04 55.519 3.944 55.519 3.848C55.519 3.672 55.407 3.544 55.215 3.544C55.023 3.544 54.927 3.688 54.863 3.864L52.623 9.912ZM59.6406 10.568C58.0086 10.568 57.0326 9.08 57.0326 7.32C57.0326 5.56 58.0086 4.072 59.6406 4.072C61.2726 4.072 62.2486 5.56 62.2486 7.32C62.2486 9.08 61.2726 10.568 59.6406 10.568ZM59.6406 11.192C61.7046 11.192 62.9046 9.416 62.9046 7.32C62.9046 5.224 61.7046 3.448 59.6406 3.448C57.5766 3.448 56.3766 5.224 56.3766 7.32C56.3766 9.416 57.5766 11.192 59.6406 11.192ZM69.7846 9.832V10.712C69.7846 10.952 69.9286 11.096 70.1206 11.096C70.2966 11.096 70.4406 10.952 70.4406 10.712V3.928C70.4406 3.688 70.2966 3.544 70.1206 3.544C69.9286 3.544 69.7846 3.688 69.7846 3.928V8.04C69.7846 9.464 68.8566 10.568 67.4646 10.568C66.2646 10.568 65.4486 9.752 65.4486 7.832V3.928C65.4486 3.688 65.3046 3.544 65.1286 3.544C64.9366 3.544 64.7926 3.688 64.7926 3.928V7.864C64.7926 10.008 65.8006 11.192 67.4486 11.192C68.5206 11.192 69.3046 10.68 69.7846 9.832ZM73.5283 5.016V3.928C73.5283 3.688 73.3843 3.544 73.1923 3.544C73.0163 3.544 72.8723 3.688 72.8723 3.928V10.712C72.8723 10.952 73.0163 11.096 73.1923 11.096C73.3843 11.096 73.5283 10.952 73.5283 10.712V7.336C73.5283 5.176 74.5203 4.248 75.6243 4.152C75.8643 4.136 75.9923 4.008 75.9923 3.816C75.9923 3.608 75.8483 3.48 75.6083 3.48C75.4803 3.48 75.3203 3.512 75.2083 3.544C74.5523 3.736 73.8803 4.184 73.5283 5.016ZM81.9454 4.264H83.7534C83.9774 4.264 84.1214 4.12 84.1214 3.96C84.1214 3.784 83.9774 3.64 83.7534 3.64H81.9454V2.648C81.9454 1.416 82.4094 0.952 83.1774 0.952C83.5774 0.952 83.7214 1.096 83.9454 1.096C84.1534 1.096 84.2654 0.983999 84.2654 0.808C84.2654 0.648 84.1534 0.535999 84.0094 0.471999C83.7694 0.36 83.4174 0.327999 83.1614 0.327999C81.9934 0.327999 81.2894 0.952 81.2894 2.648V3.64H80.3134C80.0894 3.64 79.9454 3.784 79.9454 3.96C79.9454 4.12 80.0894 4.264 80.3134 4.264H81.2894V10.712C81.2894 10.952 81.4334 11.096 81.6094 11.096C81.8014 11.096 81.9454 10.952 81.9454 10.712V4.264ZM86.9854 11.096C87.2094 11.096 87.3534 10.952 87.3534 10.792C87.3534 10.616 87.2094 10.472 86.9854 10.472C86.5214 10.472 86.2974 10.088 86.2974 9.304V0.759999C86.2974 0.52 86.1534 0.375999 85.9614 0.375999C85.7854 0.375999 85.6414 0.52 85.6414 0.759999V9.336C85.6414 10.328 86.0254 11.096 86.9854 11.096ZM89.283 7.016C89.363 5.336 90.259 4.072 91.715 4.072C93.187 4.072 94.051 5.352 94.147 7.016H89.283ZM93.507 9.912C93.123 10.28 92.595 10.568 91.875 10.568C90.243 10.568 89.363 9.112 89.283 7.64H94.483C94.675 7.64 94.803 7.512 94.803 7.32C94.803 5.176 93.667 3.448 91.715 3.448C89.747 3.448 88.611 5.224 88.611 7.32C88.611 9.416 89.811 11.192 91.875 11.192C92.739 11.192 93.443 10.888 93.971 10.376C94.067 10.28 94.131 10.184 94.131 10.056C94.131 9.88 94.003 9.752 93.843 9.752C93.731 9.752 93.619 9.8 93.507 9.912ZM96.8924 7.016C96.9724 5.336 97.8684 4.072 99.3244 4.072C100.796 4.072 101.66 5.352 101.756 7.016H96.8924ZM101.116 9.912C100.732 10.28 100.204 10.568 99.4844 10.568C97.8524 10.568 96.9724 9.112 96.8924 7.64H102.092C102.284 7.64 102.412 7.512 102.412 7.32C102.412 5.176 101.276 3.448 99.3244 3.448C97.3564 3.448 96.2204 5.224 96.2204 7.32C96.2204 9.416 97.4204 11.192 99.4844 11.192C100.348 11.192 101.052 10.888 101.58 10.376C101.676 10.28 101.74 10.184 101.74 10.056C101.74 9.88 101.612 9.752 101.452 9.752C101.34 9.752 101.228 9.8 101.116 9.912ZM105.43 4.264H107.238C107.462 4.264 107.606 4.12 107.606 3.944C107.606 3.784 107.462 3.64 107.238 3.64H105.43V1.88C105.43 1.64 105.286 1.496 105.094 1.496C104.918 1.496 104.774 1.64 104.774 1.88V3.64H103.798C103.574 3.64 103.43 3.784 103.43 3.944C103.43 4.12 103.574 4.264 103.798 4.264H104.774V8.824C104.774 10.52 105.478 11.144 106.646 11.144C106.902 11.144 107.254 11.112 107.494 11C107.638 10.936 107.75 10.824 107.75 10.664C107.75 10.488 107.638 10.376 107.43 10.376C107.206 10.376 107.062 10.52 106.662 10.52C105.894 10.52 105.43 10.056 105.43 8.824V4.264ZM118.466 9.768L116.642 3.848C116.578 3.656 116.466 3.544 116.306 3.544C116.146 3.544 116.034 3.656 115.97 3.848L114.146 9.768L112.322 3.848C112.258 3.656 112.162 3.544 111.97 3.544C111.794 3.544 111.682 3.672 111.682 3.848C111.682 3.928 111.698 4.024 111.73 4.136L113.81 10.824C113.858 11 113.986 11.112 114.146 11.112C114.306 11.112 114.418 11 114.482 10.824L116.306 4.888L118.13 10.824C118.194 11 118.306 11.112 118.466 11.112C118.626 11.112 118.754 11 118.802 10.824L120.882 4.136C120.914 4.024 120.93 3.928 120.93 3.848C120.93 3.672 120.818 3.544 120.642 3.544C120.45 3.544 120.354 3.656 120.29 3.848L118.466 9.768ZM122.911 1.864C123.183 1.864 123.407 1.64 123.407 1.368C123.407 1.096 123.183 0.872 122.911 0.872C122.639 0.872 122.415 1.096 122.415 1.368C122.415 1.64 122.639 1.864 122.911 1.864ZM122.911 11.096C123.103 11.096 123.247 10.952 123.247 10.712V3.928C123.247 3.688 123.103 3.544 122.911 3.544C122.735 3.544 122.591 3.688 122.591 3.928V10.712C122.591 10.952 122.735 11.096 122.911 11.096ZM126.805 4.264H128.613C128.837 4.264 128.981 4.12 128.981 3.944C128.981 3.784 128.837 3.64 128.613 3.64H126.805V1.88C126.805 1.64 126.661 1.496 126.469 1.496C126.293 1.496 126.149 1.64 126.149 1.88V3.64H125.173C124.949 3.64 124.805 3.784 124.805 3.944C124.805 4.12 124.949 4.264 125.173 4.264H126.149V8.824C126.149 10.52 126.853 11.144 128.021 11.144C128.277 11.144 128.629 11.112 128.869 11C129.013 10.936 129.125 10.824 129.125 10.664C129.125 10.488 129.013 10.376 128.805 10.376C128.581 10.376 128.437 10.52 128.037 10.52C127.269 10.52 126.805 10.056 126.805 8.824V4.264ZM131.372 4.808V0.759999C131.372 0.52 131.228 0.375999 131.036 0.375999C130.86 0.375999 130.716 0.52 130.716 0.759999V10.712C130.716 10.952 130.86 11.096 131.036 11.096C131.228 11.096 131.372 10.952 131.372 10.712V6.6C131.372 5.176 132.3 4.072 133.692 4.072C134.892 4.072 135.708 4.888 135.708 6.808V10.712C135.708 10.952 135.852 11.096 136.028 11.096C136.22 11.096 136.364 10.952 136.364 10.712V6.776C136.364 4.632 135.356 3.448 133.708 3.448C132.636 3.448 131.852 3.96 131.372 4.808ZM146.255 6.744H144.863C143.183 6.744 141.455 7.176 141.455 8.952C141.455 10.28 142.415 11.192 143.871 11.192C145.023 11.192 145.855 10.616 146.287 9.816C146.383 10.504 146.767 11.096 147.599 11.096C147.823 11.096 147.967 10.952 147.967 10.792C147.967 10.616 147.823 10.472 147.599 10.472C147.135 10.472 146.911 10.088 146.911 9.304V5.976C146.911 4.248 145.823 3.448 144.351 3.448C143.551 3.448 142.799 3.672 142.191 4.248C142.063 4.376 142.015 4.472 142.015 4.584C142.015 4.776 142.127 4.888 142.303 4.888C142.447 4.888 142.543 4.808 142.607 4.744C143.071 4.28 143.663 4.072 144.335 4.072C145.407 4.072 146.255 4.664 146.255 6.008V6.744ZM146.255 7.368V8.04C146.255 9.464 145.343 10.568 143.903 10.568C142.799 10.568 142.127 9.944 142.127 8.984C142.127 7.592 143.519 7.368 144.911 7.368H146.255ZM152.409 10.296C152.921 10.824 153.689 11.192 154.729 11.192C156.329 11.192 157.289 10.312 157.289 9.064C157.289 7.576 155.929 7.224 154.889 6.968C153.913 6.728 153.129 6.568 153.129 5.48C153.129 4.584 153.673 4.056 154.745 4.056C155.353 4.056 155.817 4.216 156.217 4.504C156.329 4.584 156.425 4.632 156.553 4.632C156.729 4.632 156.841 4.504 156.841 4.344C156.841 4.2 156.761 4.088 156.649 4.008C156.185 3.656 155.465 3.448 154.745 3.448C153.305 3.448 152.473 4.248 152.473 5.496C152.473 7.096 153.817 7.384 154.697 7.592C155.849 7.864 156.633 8.104 156.633 9.048C156.633 9.944 155.977 10.584 154.713 10.584C153.849 10.584 153.289 10.28 152.857 9.832C152.777 9.752 152.681 9.704 152.569 9.704C152.393 9.704 152.281 9.832 152.281 10.008C152.281 10.12 152.329 10.216 152.409 10.296ZM159.49 1.864C159.762 1.864 159.986 1.64 159.986 1.368C159.986 1.096 159.762 0.872 159.49 0.872C159.218 0.872 158.993 1.096 158.993 1.368C158.993 1.64 159.218 1.864 159.49 1.864ZM159.49 11.096C159.682 11.096 159.826 10.952 159.826 10.712V3.928C159.826 3.688 159.682 3.544 159.49 3.544C159.314 3.544 159.17 3.688 159.17 3.928V10.712C159.17 10.952 159.314 11.096 159.49 11.096ZM162.919 4.808V3.928C162.919 3.688 162.775 3.544 162.583 3.544C162.407 3.544 162.263 3.688 162.263 3.928V10.712C162.263 10.952 162.407 11.096 162.583 11.096C162.775 11.096 162.919 10.952 162.919 10.712V6.6C162.919 5.176 163.847 4.072 165.239 4.072C166.439 4.072 167.255 4.888 167.255 6.808V10.712C167.255 10.952 167.399 11.096 167.575 11.096C167.767 11.096 167.911 10.952 167.911 10.712V6.776C167.911 4.632 166.903 3.448 165.255 3.448C164.183 3.448 163.399 3.96 162.919 4.808ZM172.887 10.568C171.367 10.568 170.455 9.08 170.455 7.32C170.455 5.56 171.367 4.072 172.887 4.072C174.407 4.072 175.319 5.56 175.319 7.32C175.319 9.08 174.407 10.568 172.887 10.568ZM175.303 9.544V10.616C175.303 12.328 174.647 13.416 173.047 13.416C172.183 13.416 171.543 13.096 171.143 12.664C171.062 12.584 170.967 12.504 170.823 12.504C170.663 12.504 170.535 12.616 170.535 12.792C170.535 12.92 170.599 13.032 170.663 13.112C171.174 13.736 172.183 14.04 173.095 14.04C175.047 14.04 175.959 12.632 175.959 10.648V3.928C175.959 3.688 175.815 3.544 175.639 3.544C175.447 3.544 175.303 3.688 175.303 3.928V5.096C174.855 4.104 173.975 3.448 172.855 3.448C170.935 3.448 169.799 5.224 169.799 7.32C169.799 9.416 170.935 11.192 172.855 11.192C173.975 11.192 174.855 10.536 175.303 9.544ZM179.732 11.096C179.956 11.096 180.1 10.952 180.1 10.792C180.1 10.616 179.956 10.472 179.732 10.472C179.268 10.472 179.044 10.088 179.044 9.304V0.759999C179.044 0.52 178.9 0.375999 178.708 0.375999C178.532 0.375999 178.388 0.52 178.388 0.759999V9.336C178.388 10.328 178.772 11.096 179.732 11.096ZM181.955 7.016C182.035 5.336 182.931 4.072 184.387 4.072C185.859 4.072 186.723 5.352 186.819 7.016H181.955ZM186.179 9.912C185.795 10.28 185.267 10.568 184.547 10.568C182.915 10.568 182.035 9.112 181.955 7.64H187.155C187.347 7.64 187.475 7.512 187.475 7.32C187.475 5.176 186.339 3.448 184.387 3.448C182.419 3.448 181.283 5.224 181.283 7.32C181.283 9.416 182.483 11.192 184.547 11.192C185.411 11.192 186.115 10.888 186.643 10.376C186.739 10.28 186.803 10.184 186.803 10.056C186.803 9.88 186.675 9.752 186.515 9.752C186.403 9.752 186.291 9.8 186.179 9.912ZM4 37.192C4.864 37.192 5.568 36.888 6.096 36.376C6.192 36.28 6.256 36.184 6.256 36.056C6.256 35.88 6.128 35.752 5.968 35.752C5.856 35.752 5.744 35.8 5.632 35.912C5.248 36.28 4.72 36.568 4 36.568C2.368 36.568 1.392 35.08 1.392 33.32C1.392 31.56 2.368 30.072 4 30.072C4.72 30.072 5.248 30.36 5.632 30.728C5.744 30.84 5.856 30.888 5.968 30.888C6.128 30.888 6.256 30.76 6.256 30.584C6.256 30.456 6.192 30.36 6.096 30.264C5.568 29.752 4.864 29.448 4 29.448C1.936 29.448 0.736 31.224 0.736 33.32C0.736 35.416 1.936 37.192 4 37.192ZM10.8594 36.568C9.22738 36.568 8.25138 35.08 8.25138 33.32C8.25138 31.56 9.22738 30.072 10.8594 30.072C12.4914 30.072 13.4674 31.56 13.4674 33.32C13.4674 35.08 12.4914 36.568 10.8594 36.568ZM10.8594 37.192C12.9234 37.192 14.1234 35.416 14.1234 33.32C14.1234 31.224 12.9234 29.448 10.8594 29.448C8.79538 29.448 7.59538 31.224 7.59538 33.32C7.59538 35.416 8.79538 37.192 10.8594 37.192ZM21.1954 31.128C20.8274 30.008 20.0114 29.448 18.9554 29.448C17.9474 29.448 17.1794 29.944 16.7314 30.744V29.928C16.7314 29.688 16.5874 29.544 16.3954 29.544C16.2194 29.544 16.0754 29.688 16.0754 29.928V36.712C16.0754 36.952 16.2194 37.096 16.3954 37.096C16.5874 37.096 16.7314 36.952 16.7314 36.712V32.472C16.7314 31.128 17.6594 30.072 18.9234 30.072C20.0114 30.072 20.8274 30.856 20.8274 32.744V36.712C20.8274 36.952 20.9714 37.096 21.1474 37.096C21.3394 37.096 21.4834 36.952 21.4834 36.712V32.472C21.4834 31.128 22.3794 30.072 23.6914 30.072C24.8114 30.072 25.5794 30.856 25.5794 32.744V36.712C25.5794 36.952 25.7234 37.096 25.8994 37.096C26.0914 37.096 26.2354 36.952 26.2354 36.712V32.712C26.2354 30.552 25.2434 29.448 23.7074 29.448C22.5234 29.448 21.6434 30.088 21.1954 31.128ZM33.7266 31.128C33.3586 30.008 32.5426 29.448 31.4866 29.448C30.4786 29.448 29.7106 29.944 29.2626 30.744V29.928C29.2626 29.688 29.1186 29.544 28.9266 29.544C28.7506 29.544 28.6066 29.688 28.6066 29.928V36.712C28.6066 36.952 28.7506 37.096 28.9266 37.096C29.1186 37.096 29.2626 36.952 29.2626 36.712V32.472C29.2626 31.128 30.1906 30.072 31.4546 30.072C32.5426 30.072 33.3586 30.856 33.3586 32.744V36.712C33.3586 36.952 33.5026 37.096 33.6786 37.096C33.8706 37.096 34.0146 36.952 34.0146 36.712V32.472C34.0146 31.128 34.9106 30.072 36.2226 30.072C37.3426 30.072 38.1106 30.856 38.1106 32.744V36.712C38.1106 36.952 38.2546 37.096 38.4306 37.096C38.6226 37.096 38.7666 36.952 38.7666 36.712V32.712C38.7666 30.552 37.7746 29.448 36.2386 29.448C35.0546 29.448 34.1746 30.088 33.7266 31.128ZM45.4579 32.744H44.0659C42.3859 32.744 40.6579 33.176 40.6579 34.952C40.6579 36.28 41.6179 37.192 43.0739 37.192C44.2259 37.192 45.0579 36.616 45.4899 35.816C45.5859 36.504 45.9699 37.096 46.8019 37.096C47.0259 37.096 47.1699 36.952 47.1699 36.792C47.1699 36.616 47.0259 36.472 46.8019 36.472C46.3379 36.472 46.1139 36.088 46.1139 35.304V31.976C46.1139 30.248 45.0259 29.448 43.5539 29.448C42.7539 29.448 42.0019 29.672 41.3939 30.248C41.2659 30.376 41.2179 30.472 41.2179 30.584C41.2179 30.776 41.3299 30.888 41.5059 30.888C41.6499 30.888 41.7459 30.808 41.8099 30.744C42.2739 30.28 42.8659 30.072 43.5379 30.072C44.6099 30.072 45.4579 30.664 45.4579 32.008V32.744ZM45.4579 33.368V34.04C45.4579 35.464 44.5459 36.568 43.1059 36.568C42.0019 36.568 41.3299 35.944 41.3299 34.984C41.3299 33.592 42.7219 33.368 44.1139 33.368H45.4579ZM49.497 30.808V29.928C49.497 29.688 49.353 29.544 49.161 29.544C48.985 29.544 48.841 29.688 48.841 29.928V36.712C48.841 36.952 48.985 37.096 49.161 37.096C49.353 37.096 49.497 36.952 49.497 36.712V32.6C49.497 31.176 50.425 30.072 51.817 30.072C53.017 30.072 53.833 30.888 53.833 32.808V36.712C53.833 36.952 53.977 37.096 54.153 37.096C54.345 37.096 54.489 36.952 54.489 36.712V32.776C54.489 30.632 53.481 29.448 51.833 29.448C50.761 29.448 49.977 29.96 49.497 30.808ZM59.4646 36.568C57.9446 36.568 57.0326 35.08 57.0326 33.32C57.0326 31.56 57.9446 30.072 59.4646 30.072C60.9846 30.072 61.8966 31.56 61.8966 33.32C61.8966 35.08 60.9846 36.568 59.4646 36.568ZM61.8806 35.544V36.712C61.8806 36.952 62.0246 37.096 62.2166 37.096C62.3926 37.096 62.5366 36.952 62.5366 36.712V26.76C62.5366 26.52 62.3926 26.376 62.2166 26.376C62.0246 26.376 61.8806 26.52 61.8806 26.76V31.096C61.4326 30.104 60.5526 29.448 59.4326 29.448C57.4966 29.448 56.3766 31.224 56.3766 33.32C56.3766 35.416 57.4966 37.192 59.4326 37.192C60.5526 37.192 61.4326 36.536 61.8806 35.544ZM1.44 61.496C1.344 61.368 1.232 61.256 1.072 61.256C0.88 61.256 0.768 61.384 0.768 61.576C0.768 61.688 0.816 61.8 0.896 61.896C1.584 62.728 2.672 63.192 4.128 63.192C6.384 63.192 7.552 61.976 7.552 60.312C7.552 58.264 5.888 57.8 4.288 57.352C2.816 56.936 1.68 56.6 1.68 55.048C1.68 53.752 2.448 52.92 4.144 52.92C5.056 52.92 5.84 53.144 6.32 53.608C6.416 53.704 6.528 53.816 6.688 53.816C6.88 53.816 6.992 53.704 6.992 53.512C6.992 53.384 6.928 53.272 6.816 53.16C6.192 52.6 5.232 52.28 4.144 52.28C2.128 52.28 1.008 53.32 1.008 55.032C1.008 57.048 2.592 57.576 4.08 57.976C5.568 58.376 6.88 58.712 6.88 60.312C6.88 61.64 5.968 62.552 4.096 62.552C2.848 62.552 1.968 62.168 1.44 61.496ZM14.4565 61.832V62.712C14.4565 62.952 14.6005 63.096 14.7925 63.096C14.9685 63.096 15.1125 62.952 15.1125 62.712V55.928C15.1125 55.688 14.9685 55.544 14.7925 55.544C14.6005 55.544 14.4565 55.688 14.4565 55.928V60.04C14.4565 61.464 13.5285 62.568 12.1365 62.568C10.9365 62.568 10.1205 61.752 10.1205 59.832V55.928C10.1205 55.688 9.9765 55.544 9.8005 55.544C9.6085 55.544 9.4645 55.688 9.4645 55.928V59.864C9.4645 62.008 10.4725 63.192 12.1205 63.192C13.1925 63.192 13.9765 62.68 14.4565 61.832ZM18.2001 61.544C18.6481 62.536 19.5281 63.192 20.6481 63.192C22.5841 63.192 23.7041 61.416 23.7041 59.32C23.7041 57.224 22.5841 55.448 20.6481 55.448C19.5281 55.448 18.6481 56.104 18.2001 57.096V55.928C18.2001 55.688 18.0561 55.544 17.8641 55.544C17.6881 55.544 17.5441 55.688 17.5441 55.928V65.56C17.5441 65.8 17.6881 65.944 17.8641 65.944C18.0561 65.944 18.2001 65.8 18.2001 65.56V61.544ZM20.6161 62.568C19.0961 62.568 18.1841 61.08 18.1841 59.32C18.1841 57.56 19.0961 56.072 20.6161 56.072C22.1361 56.072 23.0481 57.56 23.0481 59.32C23.0481 61.08 22.1361 62.568 20.6161 62.568ZM26.3095 61.544C26.7575 62.536 27.6375 63.192 28.7575 63.192C30.6935 63.192 31.8135 61.416 31.8135 59.32C31.8135 57.224 30.6935 55.448 28.7575 55.448C27.6375 55.448 26.7575 56.104 26.3095 57.096V55.928C26.3095 55.688 26.1655 55.544 25.9735 55.544C25.7975 55.544 25.6535 55.688 25.6535 55.928V65.56C25.6535 65.8 25.7975 65.944 25.9735 65.944C26.1655 65.944 26.3095 65.8 26.3095 65.56V61.544ZM28.7255 62.568C27.2055 62.568 26.2935 61.08 26.2935 59.32C26.2935 57.56 27.2055 56.072 28.7255 56.072C30.2455 56.072 31.1575 57.56 31.1575 59.32C31.1575 61.08 30.2455 62.568 28.7255 62.568ZM36.5469 62.568C34.9149 62.568 33.9389 61.08 33.9389 59.32C33.9389 57.56 34.9149 56.072 36.5469 56.072C38.1789 56.072 39.1549 57.56 39.1549 59.32C39.1549 61.08 38.1789 62.568 36.5469 62.568ZM36.5469 63.192C38.6109 63.192 39.8109 61.416 39.8109 59.32C39.8109 57.224 38.6109 55.448 36.5469 55.448C34.4829 55.448 33.2829 57.224 33.2829 59.32C33.2829 61.416 34.4829 63.192 36.5469 63.192ZM42.4189 57.016V55.928C42.4189 55.688 42.2749 55.544 42.0829 55.544C41.9069 55.544 41.7629 55.688 41.7629 55.928V62.712C41.7629 62.952 41.9069 63.096 42.0829 63.096C42.2749 63.096 42.4189 62.952 42.4189 62.712V59.336C42.4189 57.176 43.4109 56.248 44.5149 56.152C44.7549 56.136 44.8829 56.008 44.8829 55.816C44.8829 55.608 44.7389 55.48 44.4989 55.48C44.3709 55.48 44.2109 55.512 44.0989 55.544C43.4429 55.736 42.7709 56.184 42.4189 57.016ZM47.6329 56.264H49.4409C49.6649 56.264 49.8089 56.12 49.8089 55.944C49.8089 55.784 49.6649 55.64 49.4409 55.64H47.6329V53.88C47.6329 53.64 47.4889 53.496 47.2969 53.496C47.1209 53.496 46.9769 53.64 46.9769 53.88V55.64H46.0009C45.7769 55.64 45.6329 55.784 45.6329 55.944C45.6329 56.12 45.7769 56.264 46.0009 56.264H46.9769V60.824C46.9769 62.52 47.6809 63.144 48.8489 63.144C49.1049 63.144 49.4569 63.112 49.6969 63C49.8409 62.936 49.9529 62.824 49.9529 62.664C49.9529 62.488 49.8409 62.376 49.6329 62.376C49.4089 62.376 49.2649 62.52 48.8649 62.52C48.0969 62.52 47.6329 62.056 47.6329 60.824V56.264ZM54.9393 59.016C55.0193 57.336 55.9153 56.072 57.3713 56.072C58.8433 56.072 59.7073 57.352 59.8033 59.016H54.9393ZM59.1633 61.912C58.7793 62.28 58.2513 62.568 57.5312 62.568C55.8993 62.568 55.0193 61.112 54.9393 59.64H60.1393C60.3313 59.64 60.4593 59.512 60.4593 59.32C60.4593 57.176 59.3233 55.448 57.3713 55.448C55.4033 55.448 54.2673 57.224 54.2673 59.32C54.2673 61.416 55.4673 63.192 57.5312 63.192C58.3953 63.192 59.0993 62.888 59.6273 62.376C59.7233 62.28 59.7873 62.184 59.7873 62.056C59.7873 61.88 59.6593 61.752 59.4993 61.752C59.3873 61.752 59.2753 61.8 59.1633 61.912ZM64.2324 63.112C64.3924 63.112 64.5044 62.984 64.5684 62.824L67.0644 56.136C67.0964 56.04 67.1284 55.944 67.1284 55.848C67.1284 55.672 67.0164 55.544 66.8244 55.544C66.6324 55.544 66.5364 55.688 66.4724 55.864L64.2324 61.912L61.9924 55.864C61.9284 55.688 61.8324 55.544 61.6404 55.544C61.4484 55.544 61.3364 55.672 61.3364 55.848C61.3364 55.944 61.3684 56.04 61.4004 56.136L63.8964 62.824C63.9604 62.984 64.0724 63.112 64.2324 63.112ZM68.658 59.016C68.738 57.336 69.634 56.072 71.09 56.072C72.562 56.072 73.426 57.352 73.522 59.016H68.658ZM72.882 61.912C72.498 62.28 71.97 62.568 71.25 62.568C69.618 62.568 68.738 61.112 68.658 59.64H73.858C74.05 59.64 74.178 59.512 74.178 59.32C74.178 57.176 73.042 55.448 71.09 55.448C69.122 55.448 67.986 57.224 67.986 59.32C67.986 61.416 69.186 63.192 71.25 63.192C72.114 63.192 72.818 62.888 73.346 62.376C73.442 62.28 73.506 62.184 73.506 62.056C73.506 61.88 73.378 61.752 73.218 61.752C73.106 61.752 72.994 61.8 72.882 61.912ZM76.7314 57.016V55.928C76.7314 55.688 76.5874 55.544 76.3954 55.544C76.2194 55.544 76.0754 55.688 76.0754 55.928V62.712C76.0754 62.952 76.2194 63.096 76.3954 63.096C76.5874 63.096 76.7314 62.952 76.7314 62.712V59.336C76.7314 57.176 77.7234 56.248 78.8274 56.152C79.0674 56.136 79.1954 56.008 79.1954 55.816C79.1954 55.608 79.0514 55.48 78.8114 55.48C78.6834 55.48 78.5234 55.512 78.4114 55.544C77.7554 55.736 77.0834 56.184 76.7314 57.016ZM82.8574 61.912L80.6174 55.864C80.5534 55.688 80.4574 55.544 80.2654 55.544C80.0734 55.544 79.9614 55.672 79.9614 55.848C79.9614 55.944 79.9934 56.04 80.0254 56.136L82.5054 62.776L82.3774 63.128C82.0894 63.928 81.4814 64.776 80.4254 65.304C80.2814 65.384 80.1854 65.48 80.1854 65.64C80.1854 65.816 80.2974 65.944 80.5054 65.944C80.6334 65.944 80.7454 65.88 80.8574 65.816C82.0094 65.192 82.6494 64.216 82.9694 63.384L85.6894 56.136C85.7214 56.04 85.7534 55.944 85.7534 55.848C85.7534 55.672 85.6414 55.544 85.4494 55.544C85.2574 55.544 85.1614 55.688 85.0974 55.864L82.8574 61.912ZM88.4454 56.264H90.2534C90.4774 56.264 90.6214 56.12 90.6214 55.944C90.6214 55.784 90.4774 55.64 90.2534 55.64H88.4454V53.88C88.4454 53.64 88.3014 53.496 88.1094 53.496C87.9334 53.496 87.7894 53.64 87.7894 53.88V55.64H86.8134C86.5894 55.64 86.4454 55.784 86.4454 55.944C86.4454 56.12 86.5894 56.264 86.8134 56.264H87.7894V60.824C87.7894 62.52 88.4934 63.144 89.6614 63.144C89.9174 63.144 90.2694 63.112 90.5094 63C90.6534 62.936 90.7654 62.824 90.7654 62.664C90.7654 62.488 90.6534 62.376 90.4454 62.376C90.2214 62.376 90.0774 62.52 89.6774 62.52C88.9094 62.52 88.4454 62.056 88.4454 60.824V56.264ZM93.0126 56.808V52.76C93.0126 52.52 92.8686 52.376 92.6766 52.376C92.5006 52.376 92.3566 52.52 92.3566 52.76V62.712C92.3566 62.952 92.5006 63.096 92.6766 63.096C92.8686 63.096 93.0126 62.952 93.0126 62.712V58.6C93.0126 57.176 93.9406 56.072 95.3326 56.072C96.5326 56.072 97.3486 56.888 97.3486 58.808V62.712C97.3486 62.952 97.4926 63.096 97.6686 63.096C97.8606 63.096 98.0046 62.952 98.0046 62.712V58.776C98.0046 56.632 96.9966 55.448 95.3486 55.448C94.2766 55.448 93.4926 55.96 93.0126 56.808ZM100.708 53.864C100.98 53.864 101.204 53.64 101.204 53.368C101.204 53.096 100.98 52.872 100.708 52.872C100.436 52.872 100.212 53.096 100.212 53.368C100.212 53.64 100.436 53.864 100.708 53.864ZM100.708 63.096C100.9 63.096 101.044 62.952 101.044 62.712V55.928C101.044 55.688 100.9 55.544 100.708 55.544C100.532 55.544 100.388 55.688 100.388 55.928V62.712C100.388 62.952 100.532 63.096 100.708 63.096ZM104.138 56.808V55.928C104.138 55.688 103.994 55.544 103.802 55.544C103.626 55.544 103.482 55.688 103.482 55.928V62.712C103.482 62.952 103.626 63.096 103.802 63.096C103.994 63.096 104.138 62.952 104.138 62.712V58.6C104.138 57.176 105.066 56.072 106.458 56.072C107.658 56.072 108.474 56.888 108.474 58.808V62.712C108.474 62.952 108.618 63.096 108.794 63.096C108.986 63.096 109.13 62.952 109.13 62.712V58.776C109.13 56.632 108.122 55.448 106.474 55.448C105.402 55.448 104.618 55.96 104.138 56.808ZM114.105 62.568C112.585 62.568 111.673 61.08 111.673 59.32C111.673 57.56 112.585 56.072 114.105 56.072C115.625 56.072 116.537 57.56 116.537 59.32C116.537 61.08 115.625 62.568 114.105 62.568ZM116.521 61.544V62.616C116.521 64.328 115.865 65.416 114.265 65.416C113.401 65.416 112.761 65.096 112.361 64.664C112.281 64.584 112.185 64.504 112.041 64.504C111.881 64.504 111.753 64.616 111.753 64.792C111.753 64.92 111.817 65.032 111.881 65.112C112.393 65.736 113.401 66.04 114.313 66.04C116.265 66.04 117.177 64.632 117.177 62.648V55.928C117.177 55.688 117.033 55.544 116.857 55.544C116.665 55.544 116.521 55.688 116.521 55.928V57.096C116.073 56.104 115.193 55.448 114.073 55.448C112.153 55.448 111.017 57.224 111.017 59.32C111.017 61.416 112.153 63.192 114.073 63.192C115.193 63.192 116.073 62.536 116.521 61.544ZM123.93 56.264H125.738C125.962 56.264 126.106 56.12 126.106 55.96C126.106 55.784 125.962 55.64 125.738 55.64H123.93V54.648C123.93 53.416 124.394 52.952 125.162 52.952C125.562 52.952 125.706 53.096 125.93 53.096C126.138 53.096 126.25 52.984 126.25 52.808C126.25 52.648 126.138 52.536 125.994 52.472C125.754 52.36 125.402 52.328 125.146 52.328C123.978 52.328 123.274 52.952 123.274 54.648V55.64H122.298C122.074 55.64 121.93 55.784 121.93 55.96C121.93 56.12 122.074 56.264 122.298 56.264H123.274V62.712C123.274 62.952 123.418 63.096 123.594 63.096C123.786 63.096 123.93 62.952 123.93 62.712V56.264ZM128.497 57.016V55.928C128.497 55.688 128.353 55.544 128.161 55.544C127.985 55.544 127.841 55.688 127.841 55.928V62.712C127.841 62.952 127.985 63.096 128.161 63.096C128.353 63.096 128.497 62.952 128.497 62.712V59.336C128.497 57.176 129.489 56.248 130.593 56.152C130.833 56.136 130.961 56.008 130.961 55.816C130.961 55.608 130.817 55.48 130.577 55.48C130.449 55.48 130.289 55.512 130.177 55.544C129.521 55.736 128.849 56.184 128.497 57.016ZM135.062 62.568C133.431 62.568 132.455 61.08 132.455 59.32C132.455 57.56 133.431 56.072 135.062 56.072C136.695 56.072 137.671 57.56 137.671 59.32C137.671 61.08 136.695 62.568 135.062 62.568ZM135.062 63.192C137.127 63.192 138.327 61.416 138.327 59.32C138.327 57.224 137.127 55.448 135.062 55.448C132.999 55.448 131.799 57.224 131.799 59.32C131.799 61.416 132.999 63.192 135.062 63.192ZM145.399 57.128C145.031 56.008 144.215 55.448 143.159 55.448C142.151 55.448 141.383 55.944 140.935 56.744V55.928C140.935 55.688 140.791 55.544 140.599 55.544C140.423 55.544 140.279 55.688 140.279 55.928V62.712C140.279 62.952 140.423 63.096 140.599 63.096C140.791 63.096 140.935 62.952 140.935 62.712V58.472C140.935 57.128 141.863 56.072 143.127 56.072C144.215 56.072 145.031 56.856 145.031 58.744V62.712C145.031 62.952 145.175 63.096 145.351 63.096C145.543 63.096 145.687 62.952 145.687 62.712V58.472C145.687 57.128 146.583 56.072 147.895 56.072C149.015 56.072 149.783 56.856 149.783 58.744V62.712C149.783 62.952 149.927 63.096 150.103 63.096C150.295 63.096 150.439 62.952 150.439 62.712V58.712C150.439 56.552 149.447 55.448 147.911 55.448C146.727 55.448 145.847 56.088 145.399 57.128ZM161.133 57.128C160.765 56.008 159.949 55.448 158.893 55.448C157.885 55.448 157.117 55.944 156.669 56.744V55.928C156.669 55.688 156.525 55.544 156.333 55.544C156.157 55.544 156.013 55.688 156.013 55.928V62.712C156.013 62.952 156.157 63.096 156.333 63.096C156.525 63.096 156.669 62.952 156.669 62.712V58.472C156.669 57.128 157.597 56.072 158.861 56.072C159.949 56.072 160.765 56.856 160.765 58.744V62.712C160.765 62.952 160.909 63.096 161.085 63.096C161.277 63.096 161.421 62.952 161.421 62.712V58.472C161.421 57.128 162.317 56.072 163.629 56.072C164.749 56.072 165.517 56.856 165.517 58.744V62.712C165.517 62.952 165.661 63.096 165.837 63.096C166.029 63.096 166.173 62.952 166.173 62.712V58.712C166.173 56.552 165.181 55.448 163.645 55.448C162.461 55.448 161.581 56.088 161.133 57.128ZM168.88 53.864C169.152 53.864 169.376 53.64 169.376 53.368C169.376 53.096 169.152 52.872 168.88 52.872C168.608 52.872 168.384 53.096 168.384 53.368C168.384 53.64 168.608 53.864 168.88 53.864ZM168.88 63.096C169.072 63.096 169.216 62.952 169.216 62.712V55.928C169.216 55.688 169.072 55.544 168.88 55.544C168.704 55.544 168.56 55.688 168.56 55.928V62.712C168.56 62.952 168.704 63.096 168.88 63.096ZM174.438 63.192C175.302 63.192 176.006 62.888 176.534 62.376C176.63 62.28 176.694 62.184 176.694 62.056C176.694 61.88 176.566 61.752 176.406 61.752C176.294 61.752 176.182 61.8 176.07 61.912C175.686 62.28 175.158 62.568 174.438 62.568C172.806 62.568 171.83 61.08 171.83 59.32C171.83 57.56 172.806 56.072 174.438 56.072C175.158 56.072 175.686 56.36 176.07 56.728C176.182 56.84 176.294 56.888 176.406 56.888C176.566 56.888 176.694 56.76 176.694 56.584C176.694 56.456 176.63 56.36 176.534 56.264C176.006 55.752 175.302 55.448 174.438 55.448C172.374 55.448 171.174 57.224 171.174 59.32C171.174 61.416 172.374 63.192 174.438 63.192ZM179.247 57.016V55.928C179.247 55.688 179.103 55.544 178.911 55.544C178.735 55.544 178.591 55.688 178.591 55.928V62.712C178.591 62.952 178.735 63.096 178.911 63.096C179.103 63.096 179.247 62.952 179.247 62.712V59.336C179.247 57.176 180.239 56.248 181.343 56.152C181.583 56.136 181.711 56.008 181.711 55.816C181.711 55.608 181.567 55.48 181.327 55.48C181.199 55.48 181.039 55.512 180.927 55.544C180.271 55.736 179.599 56.184 179.247 57.016ZM185.812 62.568C184.181 62.568 183.205 61.08 183.205 59.32C183.205 57.56 184.181 56.072 185.812 56.072C187.445 56.072 188.421 57.56 188.421 59.32C188.421 61.08 187.445 62.568 185.812 62.568ZM185.812 63.192C187.877 63.192 189.077 61.416 189.077 59.32C189.077 57.224 187.877 55.448 185.812 55.448C183.749 55.448 182.549 57.224 182.549 59.32C182.549 61.416 183.749 63.192 185.812 63.192ZM190.597 62.296C191.109 62.824 191.877 63.192 192.917 63.192C194.516 63.192 195.477 62.312 195.477 61.064C195.477 59.576 194.117 59.224 193.077 58.968C192.101 58.728 191.317 58.568 191.317 57.48C191.317 56.584 191.861 56.056 192.933 56.056C193.541 56.056 194.005 56.216 194.405 56.504C194.516 56.584 194.613 56.632 194.741 56.632C194.917 56.632 195.029 56.504 195.029 56.344C195.029 56.2 194.949 56.088 194.837 56.008C194.373 55.656 193.653 55.448 192.933 55.448C191.493 55.448 190.661 56.248 190.661 57.496C190.661 59.096 192.005 59.384 192.885 59.592C194.036 59.864 194.821 60.104 194.821 61.048C194.821 61.944 194.165 62.584 192.901 62.584C192.037 62.584 191.477 62.28 191.045 61.832C190.965 61.752 190.868 61.704 190.757 61.704C190.581 61.704 190.469 61.832 190.469 62.008C190.469 62.12 190.517 62.216 190.597 62.296ZM197.533 59.016C197.613 57.336 198.509 56.072 199.965 56.072C201.437 56.072 202.301 57.352 202.397 59.016H197.533ZM201.757 61.912C201.373 62.28 200.845 62.568 200.125 62.568C198.493 62.568 197.613 61.112 197.533 59.64H202.733C202.925 59.64 203.053 59.512 203.053 59.32C203.053 57.176 201.917 55.448 199.965 55.448C197.997 55.448 196.861 57.224 196.861 59.32C196.861 61.416 198.061 63.192 200.125 63.192C200.989 63.192 201.693 62.888 202.221 62.376C202.317 62.28 202.381 62.184 202.381 62.056C202.381 61.88 202.253 61.752 202.093 61.752C201.981 61.752 201.869 61.8 201.757 61.912ZM205.606 57.016V55.928C205.606 55.688 205.462 55.544 205.27 55.544C205.094 55.544 204.95 55.688 204.95 55.928V62.712C204.95 62.952 205.094 63.096 205.27 63.096C205.462 63.096 205.606 62.952 205.606 62.712V59.336C205.606 57.176 206.598 56.248 207.702 56.152C207.942 56.136 208.07 56.008 208.07 55.816C208.07 55.608 207.926 55.48 207.686 55.48C207.558 55.48 207.398 55.512 207.286 55.544C206.63 55.736 205.958 56.184 205.606 57.016ZM211.732 63.112C211.892 63.112 212.004 62.984 212.068 62.824L214.564 56.136C214.596 56.04 214.628 55.944 214.628 55.848C214.628 55.672 214.516 55.544 214.324 55.544C214.132 55.544 214.036 55.688 213.972 55.864L211.732 61.912L209.492 55.864C209.428 55.688 209.332 55.544 209.14 55.544C208.948 55.544 208.836 55.672 208.836 55.848C208.836 55.944 208.868 56.04 208.9 56.136L211.396 62.824C211.46 62.984 211.572 63.112 211.732 63.112ZM216.536 53.864C216.808 53.864 217.032 53.64 217.032 53.368C217.032 53.096 216.808 52.872 216.536 52.872C216.264 52.872 216.04 53.096 216.04 53.368C216.04 53.64 216.264 53.864 216.536 53.864ZM216.536 63.096C216.728 63.096 216.872 62.952 216.872 62.712V55.928C216.872 55.688 216.728 55.544 216.536 55.544C216.36 55.544 216.216 55.688 216.216 55.928V62.712C216.216 62.952 216.36 63.096 216.536 63.096ZM222.094 63.192C222.958 63.192 223.662 62.888 224.19 62.376C224.286 62.28 224.35 62.184 224.35 62.056C224.35 61.88 224.222 61.752 224.062 61.752C223.95 61.752 223.838 61.8 223.726 61.912C223.342 62.28 222.814 62.568 222.094 62.568C220.462 62.568 219.486 61.08 219.486 59.32C219.486 57.56 220.462 56.072 222.094 56.072C222.814 56.072 223.342 56.36 223.726 56.728C223.838 56.84 223.95 56.888 224.062 56.888C224.222 56.888 224.35 56.76 224.35 56.584C224.35 56.456 224.286 56.36 224.19 56.264C223.662 55.752 222.958 55.448 222.094 55.448C220.03 55.448 218.83 57.224 218.83 59.32C218.83 61.416 220.03 63.192 222.094 63.192ZM226.361 59.016C226.441 57.336 227.337 56.072 228.793 56.072C230.265 56.072 231.129 57.352 231.225 59.016H226.361ZM230.585 61.912C230.201 62.28 229.673 62.568 228.953 62.568C227.321 62.568 226.441 61.112 226.361 59.64H231.561C231.753 59.64 231.881 59.512 231.881 59.32C231.881 57.176 230.745 55.448 228.793 55.448C226.825 55.448 225.689 57.224 225.689 59.32C225.689 61.416 226.889 63.192 228.953 63.192C229.817 63.192 230.521 62.888 231.049 62.376C231.145 62.28 231.209 62.184 231.209 62.056C231.209 61.88 231.081 61.752 230.921 61.752C230.809 61.752 230.697 61.8 230.585 61.912ZM233.347 62.296C233.859 62.824 234.627 63.192 235.667 63.192C237.266 63.192 238.227 62.312 238.227 61.064C238.227 59.576 236.867 59.224 235.827 58.968C234.851 58.728 234.067 58.568 234.067 57.48C234.067 56.584 234.611 56.056 235.683 56.056C236.291 56.056 236.755 56.216 237.155 56.504C237.266 56.584 237.363 56.632 237.491 56.632C237.667 56.632 237.779 56.504 237.779 56.344C237.779 56.2 237.699 56.088 237.587 56.008C237.123 55.656 236.403 55.448 235.683 55.448C234.243 55.448 233.411 56.248 233.411 57.496C233.411 59.096 234.755 59.384 235.635 59.592C236.786 59.864 237.571 60.104 237.571 61.048C237.571 61.944 236.915 62.584 235.651 62.584C234.787 62.584 234.227 62.28 233.795 61.832C233.715 61.752 233.618 61.704 233.507 61.704C233.331 61.704 233.219 61.832 233.219 62.008C233.219 62.12 233.267 62.216 233.347 62.296ZM2.336 82.264H4.144C4.368 82.264 4.512 82.12 4.512 81.944C4.512 81.784 4.368 81.64 4.144 81.64H2.336V79.88C2.336 79.64 2.192 79.496 2 79.496C1.824 79.496 1.68 79.64 1.68 79.88V81.64H0.704C0.48 81.64 0.336 81.784 0.336 81.944C0.336 82.12 0.48 82.264 0.704 82.264H1.68V86.824C1.68 88.52 2.384 89.144 3.552 89.144C3.808 89.144 4.16 89.112 4.4 89C4.544 88.936 4.656 88.824 4.656 88.664C4.656 88.488 4.544 88.376 4.336 88.376C4.112 88.376 3.968 88.52 3.568 88.52C2.8 88.52 2.336 88.056 2.336 86.824V82.264ZM9.03125 88.568C7.39925 88.568 6.42325 87.08 6.42325 85.32C6.42325 83.56 7.39925 82.072 9.03125 82.072C10.6633 82.072 11.6393 83.56 11.6393 85.32C11.6393 87.08 10.6633 88.568 9.03125 88.568ZM9.03125 89.192C11.0953 89.192 12.2953 87.416 12.2953 85.32C12.2953 83.224 11.0953 81.448 9.03125 81.448C6.96725 81.448 5.76725 83.224 5.76725 85.32C5.76725 87.416 6.96725 89.192 9.03125 89.192ZM17.6424 85.016C17.7224 83.336 18.6184 82.072 20.0744 82.072C21.5464 82.072 22.4104 83.352 22.5064 85.016H17.6424ZM21.8664 87.912C21.4824 88.28 20.9544 88.568 20.2344 88.568C18.6024 88.568 17.7224 87.112 17.6424 85.64H22.8424C23.0344 85.64 23.1624 85.512 23.1624 85.32C23.1624 83.176 22.0264 81.448 20.0744 81.448C18.1064 81.448 16.9704 83.224 16.9704 85.32C16.9704 87.416 18.1704 89.192 20.2344 89.192C21.0984 89.192 21.8024 88.888 22.3304 88.376C22.4264 88.28 22.4904 88.184 22.4904 88.056C22.4904 87.88 22.3624 87.752 22.2024 87.752C22.0904 87.752 21.9784 87.8 21.8664 87.912ZM25.7158 82.808V81.928C25.7158 81.688 25.5718 81.544 25.3798 81.544C25.2038 81.544 25.0598 81.688 25.0598 81.928V88.712C25.0598 88.952 25.2038 89.096 25.3798 89.096C25.5718 89.096 25.7158 88.952 25.7158 88.712V84.6C25.7158 83.176 26.6438 82.072 28.0358 82.072C29.2358 82.072 30.0518 82.888 30.0518 84.808V88.712C30.0518 88.952 30.1958 89.096 30.3718 89.096C30.5638 89.096 30.7078 88.952 30.7078 88.712V84.776C30.7078 82.632 29.6998 81.448 28.0518 81.448C26.9798 81.448 26.1957 81.96 25.7158 82.808ZM34.1954 82.264H36.0034C36.2274 82.264 36.3714 82.12 36.3714 81.944C36.3714 81.784 36.2274 81.64 36.0034 81.64H34.1954V79.88C34.1954 79.64 34.0514 79.496 33.8594 79.496C33.6834 79.496 33.5394 79.64 33.5394 79.88V81.64H32.5634C32.3394 81.64 32.1954 81.784 32.1954 81.944C32.1954 82.12 32.3394 82.264 32.5634 82.264H33.5394V86.824C33.5394 88.52 34.2434 89.144 35.4114 89.144C35.6674 89.144 36.0194 89.112 36.2594 89C36.4034 88.936 36.5154 88.824 36.5154 88.664C36.5154 88.488 36.4034 88.376 36.1954 88.376C35.9714 88.376 35.8274 88.52 35.4274 88.52C34.6594 88.52 34.1954 88.056 34.1954 86.824V82.264ZM38.2986 85.016C38.3786 83.336 39.2746 82.072 40.7306 82.072C42.2026 82.072 43.0666 83.352 43.1626 85.016H38.2986ZM42.5226 87.912C42.1386 88.28 41.6106 88.568 40.8906 88.568C39.2586 88.568 38.3786 87.112 38.2986 85.64H43.4986C43.6906 85.64 43.8186 85.512 43.8186 85.32C43.8186 83.176 42.6826 81.448 40.7306 81.448C38.7626 81.448 37.6266 83.224 37.6266 85.32C37.6266 87.416 38.8266 89.192 40.8906 89.192C41.7546 89.192 42.4586 88.888 42.9866 88.376C43.0826 88.28 43.1466 88.184 43.1466 88.056C43.1466 87.88 43.0186 87.752 42.8586 87.752C42.7466 87.752 42.6346 87.8 42.5226 87.912ZM46.372 83.016V81.928C46.372 81.688 46.228 81.544 46.036 81.544C45.86 81.544 45.716 81.688 45.716 81.928V88.712C45.716 88.952 45.86 89.096 46.036 89.096C46.228 89.096 46.372 88.952 46.372 88.712V85.336C46.372 83.176 47.364 82.248 48.468 82.152C48.708 82.136 48.836 82.008 48.836 81.816C48.836 81.608 48.692 81.48 48.452 81.48C48.324 81.48 48.164 81.512 48.052 81.544C47.396 81.736 46.724 82.184 46.372 83.016ZM51.122 87.544C51.57 88.536 52.45 89.192 53.57 89.192C55.506 89.192 56.626 87.416 56.626 85.32C56.626 83.224 55.506 81.448 53.57 81.448C52.45 81.448 51.57 82.104 51.122 83.096V81.928C51.122 81.688 50.978 81.544 50.786 81.544C50.61 81.544 50.466 81.688 50.466 81.928V91.56C50.466 91.8 50.61 91.944 50.786 91.944C50.978 91.944 51.122 91.8 51.122 91.56V87.544ZM53.538 88.568C52.018 88.568 51.106 87.08 51.106 85.32C51.106 83.56 52.018 82.072 53.538 82.072C55.058 82.072 55.97 83.56 55.97 85.32C55.97 87.08 55.058 88.568 53.538 88.568ZM59.2314 83.016V81.928C59.2314 81.688 59.0874 81.544 58.8954 81.544C58.7194 81.544 58.5754 81.688 58.5754 81.928V88.712C58.5754 88.952 58.7194 89.096 58.8954 89.096C59.0874 89.096 59.2314 88.952 59.2314 88.712V85.336C59.2314 83.176 60.2234 82.248 61.3274 82.152C61.5674 82.136 61.6954 82.008 61.6954 81.816C61.6954 81.608 61.5514 81.48 61.3114 81.48C61.1834 81.48 61.0234 81.512 60.9114 81.544C60.2554 81.736 59.5834 82.184 59.2314 83.016ZM63.6614 79.864C63.9334 79.864 64.1574 79.64 64.1574 79.368C64.1574 79.096 63.9334 78.872 63.6614 78.872C63.3894 78.872 63.1654 79.096 63.1654 79.368C63.1654 79.64 63.3894 79.864 63.6614 79.864ZM63.6614 89.096C63.8534 89.096 63.9974 88.952 63.9974 88.712V81.928C63.9974 81.688 63.8534 81.544 63.6614 81.544C63.4854 81.544 63.3414 81.688 63.3414 81.928V88.712C63.3414 88.952 63.4854 89.096 63.6614 89.096ZM66.0028 88.296C66.5148 88.824 67.2828 89.192 68.3228 89.192C69.9227 89.192 70.8828 88.312 70.8828 87.064C70.8828 85.576 69.5228 85.224 68.4828 84.968C67.5068 84.728 66.7228 84.568 66.7228 83.48C66.7228 82.584 67.2668 82.056 68.3388 82.056C68.9468 82.056 69.4108 82.216 69.8108 82.504C69.9227 82.584 70.0188 82.632 70.1468 82.632C70.3228 82.632 70.4348 82.504 70.4348 82.344C70.4348 82.2 70.3548 82.088 70.2428 82.008C69.7788 81.656 69.0588 81.448 68.3388 81.448C66.8988 81.448 66.0668 82.248 66.0668 83.496C66.0668 85.096 67.4108 85.384 68.2908 85.592C69.4427 85.864 70.2268 86.104 70.2268 87.048C70.2268 87.944 69.5708 88.584 68.3068 88.584C67.4428 88.584 66.8828 88.28 66.4508 87.832C66.3708 87.752 66.2747 87.704 66.1628 87.704C65.9868 87.704 65.8748 87.832 65.8748 88.008C65.8748 88.12 65.9228 88.216 66.0028 88.296ZM72.9393 85.016C73.0193 83.336 73.9153 82.072 75.3713 82.072C76.8433 82.072 77.7073 83.352 77.8033 85.016H72.9393ZM77.1633 87.912C76.7793 88.28 76.2513 88.568 75.5312 88.568C73.8993 88.568 73.0193 87.112 72.9393 85.64H78.1393C78.3313 85.64 78.4593 85.512 78.4593 85.32C78.4593 83.176 77.3233 81.448 75.3713 81.448C73.4033 81.448 72.2673 83.224 72.2673 85.32C72.2673 87.416 73.4673 89.192 75.5312 89.192C76.3953 89.192 77.0993 88.888 77.6273 88.376C77.7233 88.28 77.7873 88.184 77.7873 88.056C77.7873 87.88 77.6593 87.752 77.4993 87.752C77.3873 87.752 77.2753 87.8 77.1633 87.912ZM87.5918 89.192C88.8878 89.192 89.8958 88.648 90.5518 87.928C90.6478 87.832 90.7278 87.704 90.7278 87.576C90.7278 87.4 90.6158 87.272 90.4237 87.272C90.2798 87.272 90.1678 87.368 90.0718 87.464C89.4958 88.104 88.6638 88.552 87.5918 88.552C85.2238 88.552 83.8318 86.344 83.8318 83.736C83.8318 81.128 85.2238 78.92 87.5918 78.92C88.6638 78.92 89.4958 79.368 90.0718 80.008C90.1678 80.104 90.2798 80.2 90.4237 80.2C90.6158 80.2 90.7278 80.072 90.7278 79.896C90.7278 79.768 90.6478 79.64 90.5518 79.544C89.8958 78.824 88.8878 78.28 87.5918 78.28C84.7918 78.28 83.1598 80.776 83.1598 83.736C83.1598 86.696 84.7918 89.192 87.5918 89.192ZM97.1488 86.184L93.4368 78.648C93.3568 78.472 93.2608 78.376 93.1008 78.376C92.9088 78.376 92.7648 78.52 92.7648 78.76V88.696C92.7648 88.936 92.9088 89.096 93.1008 89.096C93.2928 89.096 93.4368 88.936 93.4368 88.696V80.12L96.8128 86.968C96.8928 87.128 97.0048 87.224 97.1488 87.224C97.2928 87.224 97.4048 87.128 97.4848 86.968L100.861 80.12V88.696C100.861 88.936 101.005 89.096 101.197 89.096C101.389 89.096 101.533 88.936 101.533 88.696V78.76C101.533 78.52 101.389 78.376 101.197 78.376C101.037 78.376 100.941 78.472 100.861 78.648L97.1488 86.184ZM104.268 87.496C104.172 87.368 104.06 87.256 103.9 87.256C103.708 87.256 103.596 87.384 103.596 87.576C103.596 87.688 103.644 87.8 103.724 87.896C104.412 88.728 105.5 89.192 106.956 89.192C109.212 89.192 110.38 87.976 110.38 86.312C110.38 84.264 108.716 83.8 107.116 83.352C105.644 82.936 104.508 82.6 104.508 81.048C104.508 79.752 105.276 78.92 106.972 78.92C107.884 78.92 108.668 79.144 109.148 79.608C109.244 79.704 109.356 79.816 109.516 79.816C109.708 79.816 109.82 79.704 109.82 79.512C109.82 79.384 109.756 79.272 109.644 79.16C109.02 78.6 108.06 78.28 106.972 78.28C104.956 78.28 103.836 79.32 103.836 81.032C103.836 83.048 105.42 83.576 106.908 83.976C108.396 84.376 109.708 84.712 109.708 86.312C109.708 87.64 108.796 88.552 106.924 88.552C105.676 88.552 104.796 88.168 104.268 87.496ZM116.68 82.264H118.488C118.712 82.264 118.856 82.12 118.856 81.944C118.856 81.784 118.712 81.64 118.488 81.64H116.68V79.88C116.68 79.64 116.536 79.496 116.344 79.496C116.168 79.496 116.024 79.64 116.024 79.88V81.64H115.048C114.824 81.64 114.68 81.784 114.68 81.944C114.68 82.12 114.824 82.264 115.048 82.264H116.024V86.824C116.024 88.52 116.728 89.144 117.896 89.144C118.152 89.144 118.504 89.112 118.744 89C118.888 88.936 119 88.824 119 88.664C119 88.488 118.888 88.376 118.68 88.376C118.456 88.376 118.312 88.52 117.912 88.52C117.144 88.52 116.68 88.056 116.68 86.824V82.264ZM123.375 88.568C121.743 88.568 120.767 87.08 120.767 85.32C120.767 83.56 121.743 82.072 123.375 82.072C125.007 82.072 125.983 83.56 125.983 85.32C125.983 87.08 125.007 88.568 123.375 88.568ZM123.375 89.192C125.439 89.192 126.639 87.416 126.639 85.32C126.639 83.224 125.439 81.448 123.375 81.448C121.311 81.448 120.111 83.224 120.111 85.32C120.111 87.416 121.311 89.192 123.375 89.192ZM131.362 88.296C131.874 88.824 132.642 89.192 133.682 89.192C135.282 89.192 136.242 88.312 136.242 87.064C136.242 85.576 134.882 85.224 133.842 84.968C132.866 84.728 132.082 84.568 132.082 83.48C132.082 82.584 132.626 82.056 133.698 82.056C134.306 82.056 134.77 82.216 135.17 82.504C135.282 82.584 135.378 82.632 135.506 82.632C135.682 82.632 135.794 82.504 135.794 82.344C135.794 82.2 135.714 82.088 135.602 82.008C135.138 81.656 134.418 81.448 133.698 81.448C132.258 81.448 131.426 82.248 131.426 83.496C131.426 85.096 132.77 85.384 133.65 85.592C134.802 85.864 135.586 86.104 135.586 87.048C135.586 87.944 134.93 88.584 133.666 88.584C132.802 88.584 132.242 88.28 131.81 87.832C131.73 87.752 131.634 87.704 131.522 87.704C131.346 87.704 131.234 87.832 131.234 88.008C131.234 88.12 131.282 88.216 131.362 88.296ZM139.227 82.264H141.035C141.259 82.264 141.403 82.12 141.403 81.944C141.403 81.784 141.259 81.64 141.035 81.64H139.227V79.88C139.227 79.64 139.083 79.496 138.891 79.496C138.715 79.496 138.571 79.64 138.571 79.88V81.64H137.595C137.371 81.64 137.227 81.784 137.227 81.944C137.227 82.12 137.371 82.264 137.595 82.264H138.571V86.824C138.571 88.52 139.275 89.144 140.443 89.144C140.699 89.144 141.051 89.112 141.291 89C141.435 88.936 141.547 88.824 141.547 88.664C141.547 88.488 141.435 88.376 141.227 88.376C141.003 88.376 140.859 88.52 140.459 88.52C139.691 88.52 139.227 88.056 139.227 86.824V82.264ZM147.458 84.744H146.066C144.386 84.744 142.658 85.176 142.658 86.952C142.658 88.28 143.618 89.192 145.074 89.192C146.226 89.192 147.058 88.616 147.49 87.816C147.586 88.504 147.97 89.096 148.802 89.096C149.026 89.096 149.17 88.952 149.17 88.792C149.17 88.616 149.026 88.472 148.802 88.472C148.338 88.472 148.114 88.088 148.114 87.304V83.976C148.114 82.248 147.026 81.448 145.554 81.448C144.754 81.448 144.002 81.672 143.394 82.248C143.266 82.376 143.218 82.472 143.218 82.584C143.218 82.776 143.33 82.888 143.506 82.888C143.65 82.888 143.746 82.808 143.81 82.744C144.274 82.28 144.866 82.072 145.538 82.072C146.61 82.072 147.458 82.664 147.458 84.008V84.744ZM147.458 85.368V86.04C147.458 87.464 146.546 88.568 145.106 88.568C144.002 88.568 143.33 87.944 143.33 86.984C143.33 85.592 144.722 85.368 146.114 85.368H147.458ZM151.883 82.264H153.691C153.915 82.264 154.059 82.12 154.059 81.944C154.059 81.784 153.915 81.64 153.691 81.64H151.883V79.88C151.883 79.64 151.739 79.496 151.547 79.496C151.371 79.496 151.227 79.64 151.227 79.88V81.64H150.251C150.027 81.64 149.883 81.784 149.883 81.944C149.883 82.12 150.027 82.264 150.251 82.264H151.227V86.824C151.227 88.52 151.931 89.144 153.099 89.144C153.355 89.144 153.707 89.112 153.947 89C154.091 88.936 154.203 88.824 154.203 88.664C154.203 88.488 154.091 88.376 153.883 88.376C153.659 88.376 153.515 88.52 153.115 88.52C152.347 88.52 151.883 88.056 151.883 86.824V82.264ZM156.13 79.864C156.402 79.864 156.626 79.64 156.626 79.368C156.626 79.096 156.402 78.872 156.13 78.872C155.858 78.872 155.634 79.096 155.634 79.368C155.634 79.64 155.858 79.864 156.13 79.864ZM156.13 89.096C156.322 89.096 156.466 88.952 156.466 88.712V81.928C156.466 81.688 156.322 81.544 156.13 81.544C155.954 81.544 155.81 81.688 155.81 81.928V88.712C155.81 88.952 155.954 89.096 156.13 89.096ZM161.688 89.192C162.552 89.192 163.256 88.888 163.784 88.376C163.88 88.28 163.944 88.184 163.944 88.056C163.944 87.88 163.816 87.752 163.656 87.752C163.544 87.752 163.432 87.8 163.32 87.912C162.936 88.28 162.408 88.568 161.688 88.568C160.056 88.568 159.08 87.08 159.08 85.32C159.08 83.56 160.056 82.072 161.688 82.072C162.408 82.072 162.936 82.36 163.32 82.728C163.432 82.84 163.544 82.888 163.656 82.888C163.816 82.888 163.944 82.76 163.944 82.584C163.944 82.456 163.88 82.36 163.784 82.264C163.256 81.752 162.552 81.448 161.688 81.448C159.624 81.448 158.424 83.224 158.424 85.32C158.424 87.416 159.624 89.192 161.688 89.192ZM168.612 88.296C169.124 88.824 169.892 89.192 170.932 89.192C172.532 89.192 173.492 88.312 173.492 87.064C173.492 85.576 172.132 85.224 171.092 84.968C170.116 84.728 169.332 84.568 169.332 83.48C169.332 82.584 169.876 82.056 170.948 82.056C171.556 82.056 172.02 82.216 172.42 82.504C172.532 82.584 172.628 82.632 172.756 82.632C172.932 82.632 173.044 82.504 173.044 82.344C173.044 82.2 172.964 82.088 172.852 82.008C172.388 81.656 171.668 81.448 170.948 81.448C169.508 81.448 168.676 82.248 168.676 83.496C168.676 85.096 170.02 85.384 170.9 85.592C172.052 85.864 172.836 86.104 172.836 87.048C172.836 87.944 172.18 88.584 170.916 88.584C170.052 88.584 169.492 88.28 169.06 87.832C168.98 87.752 168.884 87.704 168.772 87.704C168.596 87.704 168.484 87.832 168.484 88.008C168.484 88.12 168.532 88.216 168.612 88.296ZM175.693 79.864C175.965 79.864 176.189 79.64 176.189 79.368C176.189 79.096 175.965 78.872 175.693 78.872C175.421 78.872 175.197 79.096 175.197 79.368C175.197 79.64 175.421 79.864 175.693 79.864ZM175.693 89.096C175.885 89.096 176.029 88.952 176.029 88.712V81.928C176.029 81.688 175.885 81.544 175.693 81.544C175.517 81.544 175.373 81.688 175.373 81.928V88.712C175.373 88.952 175.517 89.096 175.693 89.096ZM179.586 82.264H181.394C181.618 82.264 181.762 82.12 181.762 81.944C181.762 81.784 181.618 81.64 181.394 81.64H179.586V79.88C179.586 79.64 179.442 79.496 179.25 79.496C179.074 79.496 178.93 79.64 178.93 79.88V81.64H177.954C177.73 81.64 177.586 81.784 177.586 81.944C177.586 82.12 177.73 82.264 177.954 82.264H178.93V86.824C178.93 88.52 179.634 89.144 180.802 89.144C181.058 89.144 181.41 89.112 181.65 89C181.794 88.936 181.906 88.824 181.906 88.664C181.906 88.488 181.794 88.376 181.586 88.376C181.362 88.376 181.218 88.52 180.818 88.52C180.05 88.52 179.586 88.056 179.586 86.824V82.264ZM183.689 85.016C183.769 83.336 184.665 82.072 186.121 82.072C187.593 82.072 188.457 83.352 188.553 85.016H183.689ZM187.913 87.912C187.529 88.28 187.001 88.568 186.281 88.568C184.649 88.568 183.769 87.112 183.689 85.64H188.889C189.081 85.64 189.209 85.512 189.209 85.32C189.209 83.176 188.073 81.448 186.121 81.448C184.153 81.448 183.017 83.224 183.017 85.32C183.017 87.416 184.217 89.192 186.281 89.192C187.145 89.192 187.849 88.888 188.377 88.376C188.473 88.28 188.537 88.184 188.537 88.056C188.537 87.88 188.409 87.752 188.249 87.752C188.137 87.752 188.025 87.8 187.913 87.912ZM190.675 88.296C191.187 88.824 191.955 89.192 192.995 89.192C194.595 89.192 195.555 88.312 195.555 87.064C195.555 85.576 194.195 85.224 193.155 84.968C192.179 84.728 191.395 84.568 191.395 83.48C191.395 82.584 191.939 82.056 193.011 82.056C193.619 82.056 194.083 82.216 194.483 82.504C194.595 82.584 194.691 82.632 194.819 82.632C194.995 82.632 195.107 82.504 195.107 82.344C195.107 82.2 195.027 82.088 194.915 82.008C194.451 81.656 193.731 81.448 193.011 81.448C191.571 81.448 190.739 82.248 190.739 83.496C190.739 85.096 192.083 85.384 192.963 85.592C194.115 85.864 194.899 86.104 194.899 87.048C194.899 87.944 194.243 88.584 192.979 88.584C192.115 88.584 191.555 88.28 191.123 87.832C191.043 87.752 190.947 87.704 190.835 87.704C190.659 87.704 190.547 87.832 190.547 88.008C190.547 88.12 190.595 88.216 190.675 88.296ZM5.68 138.184L1.968 130.648C1.888 130.472 1.792 130.376 1.632 130.376C1.44 130.376 1.296 130.52 1.296 130.76V140.696C1.296 140.936 1.44 141.096 1.632 141.096C1.824 141.096 1.968 140.936 1.968 140.696V132.12L5.344 138.968C5.424 139.128 5.536 139.224 5.68 139.224C5.824 139.224 5.936 139.128 6.016 138.968L9.392 132.12V140.696C9.392 140.936 9.536 141.096 9.728 141.096C9.92 141.096 10.064 140.936 10.064 140.696V130.76C10.064 130.52 9.92 130.376 9.728 130.376C9.568 130.376 9.472 130.472 9.392 130.648L5.68 138.184ZM16.8954 136.744H15.5034C13.8234 136.744 12.0954 137.176 12.0954 138.952C12.0954 140.28 13.0554 141.192 14.5114 141.192C15.6634 141.192 16.4954 140.616 16.9274 139.816C17.0234 140.504 17.4074 141.096 18.2394 141.096C18.4634 141.096 18.6074 140.952 18.6074 140.792C18.6074 140.616 18.4634 140.472 18.2394 140.472C17.7754 140.472 17.5514 140.088 17.5514 139.304V135.976C17.5514 134.248 16.4634 133.448 14.9914 133.448C14.1914 133.448 13.4394 133.672 12.8314 134.248C12.7034 134.376 12.6554 134.472 12.6554 134.584C12.6554 134.776 12.7674 134.888 12.9434 134.888C13.0874 134.888 13.1834 134.808 13.2474 134.744C13.7114 134.28 14.3034 134.072 14.9754 134.072C16.0474 134.072 16.8954 134.664 16.8954 136.008V136.744ZM16.8954 137.368V138.04C16.8954 139.464 15.9834 140.568 14.5434 140.568C13.4394 140.568 12.7674 139.944 12.7674 138.984C12.7674 137.592 14.1594 137.368 15.5514 137.368H16.8954ZM20.6145 131.864C20.8865 131.864 21.1105 131.64 21.1105 131.368C21.1105 131.096 20.8865 130.872 20.6145 130.872C20.3425 130.872 20.1185 131.096 20.1185 131.368C20.1185 131.64 20.3425 131.864 20.6145 131.864ZM20.6145 141.096C20.8065 141.096 20.9505 140.952 20.9505 140.712V133.928C20.9505 133.688 20.8065 133.544 20.6145 133.544C20.4385 133.544 20.2945 133.688 20.2945 133.928V140.712C20.2945 140.952 20.4385 141.096 20.6145 141.096ZM24.0439 134.808V133.928C24.0439 133.688 23.8999 133.544 23.7079 133.544C23.5319 133.544 23.3879 133.688 23.3879 133.928V140.712C23.3879 140.952 23.5319 141.096 23.7079 141.096C23.8999 141.096 24.0439 140.952 24.0439 140.712V136.6C24.0439 135.176 24.9719 134.072 26.3639 134.072C27.5639 134.072 28.3799 134.888 28.3799 136.808V140.712C28.3799 140.952 28.5239 141.096 28.6999 141.096C28.8919 141.096 29.0359 140.952 29.0359 140.712V136.776C29.0359 134.632 28.0279 133.448 26.3799 133.448C25.3079 133.448 24.5239 133.96 24.0439 134.808ZM32.5235 134.264H34.3315C34.5555 134.264 34.6995 134.12 34.6995 133.944C34.6995 133.784 34.5555 133.64 34.3315 133.64H32.5235V131.88C32.5235 131.64 32.3795 131.496 32.1875 131.496C32.0115 131.496 31.8675 131.64 31.8675 131.88V133.64H30.8915C30.6675 133.64 30.5235 133.784 30.5235 133.944C30.5235 134.12 30.6675 134.264 30.8915 134.264H31.8675V138.824C31.8675 140.52 32.5715 141.144 33.7395 141.144C33.9955 141.144 34.3475 141.112 34.5875 141C34.7315 140.936 34.8435 140.824 34.8435 140.664C34.8435 140.488 34.7315 140.376 34.5235 140.376C34.2995 140.376 34.1555 140.52 33.7555 140.52C32.9875 140.52 32.5235 140.056 32.5235 138.824V134.264ZM40.7548 136.744H39.3628C37.6828 136.744 35.9548 137.176 35.9548 138.952C35.9548 140.28 36.9148 141.192 38.3708 141.192C39.5228 141.192 40.3548 140.616 40.7868 139.816C40.8828 140.504 41.2668 141.096 42.0988 141.096C42.3228 141.096 42.4668 140.952 42.4668 140.792C42.4668 140.616 42.3228 140.472 42.0988 140.472C41.6348 140.472 41.4108 140.088 41.4108 139.304V135.976C41.4108 134.248 40.3228 133.448 38.8508 133.448C38.0508 133.448 37.2988 133.672 36.6908 134.248C36.5628 134.376 36.5148 134.472 36.5148 134.584C36.5148 134.776 36.6268 134.888 36.8028 134.888C36.9468 134.888 37.0428 134.808 37.1068 134.744C37.5707 134.28 38.1628 134.072 38.8348 134.072C39.9068 134.072 40.7548 134.664 40.7548 136.008V136.744ZM40.7548 137.368V138.04C40.7548 139.464 39.8428 140.568 38.4028 140.568C37.2988 140.568 36.6268 139.944 36.6268 138.984C36.6268 137.592 38.0188 137.368 39.4108 137.368H40.7548ZM44.4739 131.864C44.7459 131.864 44.9699 131.64 44.9699 131.368C44.9699 131.096 44.7459 130.872 44.4739 130.872C44.2019 130.872 43.9779 131.096 43.9779 131.368C43.9779 131.64 44.2019 131.864 44.4739 131.864ZM44.4739 141.096C44.6659 141.096 44.8099 140.952 44.8099 140.712V133.928C44.8099 133.688 44.6659 133.544 44.4739 133.544C44.2979 133.544 44.1539 133.688 44.1539 133.928V140.712C44.1539 140.952 44.2979 141.096 44.4739 141.096ZM47.9033 134.808V133.928C47.9033 133.688 47.7593 133.544 47.5673 133.544C47.3913 133.544 47.2473 133.688 47.2473 133.928V140.712C47.2473 140.952 47.3913 141.096 47.5673 141.096C47.7593 141.096 47.9033 140.952 47.9033 140.712V136.6C47.9033 135.176 48.8313 134.072 50.2233 134.072C51.4233 134.072 52.2393 134.888 52.2393 136.808V140.712C52.2393 140.952 52.3833 141.096 52.5593 141.096C52.7513 141.096 52.8953 140.952 52.8953 140.712V136.776C52.8953 134.632 51.8873 133.448 50.2393 133.448C49.1673 133.448 48.3832 133.96 47.9033 134.808ZM61.074 140.568C59.554 140.568 58.642 139.08 58.642 137.32C58.642 135.56 59.554 134.072 61.074 134.072C62.594 134.072 63.506 135.56 63.506 137.32C63.506 139.08 62.594 140.568 61.074 140.568ZM63.49 139.544V140.616C63.49 142.328 62.834 143.416 61.234 143.416C60.37 143.416 59.73 143.096 59.33 142.664C59.25 142.584 59.154 142.504 59.01 142.504C58.85 142.504 58.722 142.616 58.722 142.792C58.722 142.92 58.786 143.032 58.85 143.112C59.362 143.736 60.37 144.04 61.282 144.04C63.234 144.04 64.146 142.632 64.146 140.648V133.928C64.146 133.688 64.002 133.544 63.826 133.544C63.634 133.544 63.49 133.688 63.49 133.928V135.096C63.042 134.104 62.162 133.448 61.042 133.448C59.122 133.448 57.986 135.224 57.986 137.32C57.986 139.416 59.122 141.192 61.042 141.192C62.162 141.192 63.042 140.536 63.49 139.544ZM69.3594 140.568C67.7274 140.568 66.7514 139.08 66.7514 137.32C66.7514 135.56 67.7274 134.072 69.3594 134.072C70.9914 134.072 71.9674 135.56 71.9674 137.32C71.9674 139.08 70.9914 140.568 69.3594 140.568ZM69.3594 141.192C71.4234 141.192 72.6234 139.416 72.6234 137.32C72.6234 135.224 71.4234 133.448 69.3594 133.448C67.2954 133.448 66.0954 135.224 66.0954 137.32C66.0954 139.416 67.2954 141.192 69.3594 141.192ZM76.373 141.112C76.533 141.112 76.645 140.984 76.709 140.824L79.205 134.136C79.237 134.04 79.269 133.944 79.269 133.848C79.269 133.672 79.157 133.544 78.965 133.544C78.773 133.544 78.677 133.688 78.613 133.864L76.373 139.912L74.133 133.864C74.069 133.688 73.973 133.544 73.781 133.544C73.589 133.544 73.477 133.672 73.477 133.848C73.477 133.944 73.509 134.04 73.541 134.136L76.037 140.824C76.101 140.984 76.213 141.112 76.373 141.112ZM80.7986 137.016C80.8786 135.336 81.7746 134.072 83.2306 134.072C84.7026 134.072 85.5666 135.352 85.6626 137.016H80.7986ZM85.0226 139.912C84.6386 140.28 84.1106 140.568 83.3906 140.568C81.7586 140.568 80.8786 139.112 80.7986 137.64H85.9986C86.1906 137.64 86.3186 137.512 86.3186 137.32C86.3186 135.176 85.1826 133.448 83.2306 133.448C81.2626 133.448 80.1266 135.224 80.1266 137.32C80.1266 139.416 81.3266 141.192 83.3906 141.192C84.2546 141.192 84.9586 140.888 85.4866 140.376C85.5826 140.28 85.6466 140.184 85.6466 140.056C85.6466 139.88 85.5186 139.752 85.3586 139.752C85.2466 139.752 85.1346 139.8 85.0226 139.912ZM88.872 135.016V133.928C88.872 133.688 88.728 133.544 88.536 133.544C88.36 133.544 88.216 133.688 88.216 133.928V140.712C88.216 140.952 88.36 141.096 88.536 141.096C88.728 141.096 88.872 140.952 88.872 140.712V137.336C88.872 135.176 89.864 134.248 90.968 134.152C91.208 134.136 91.336 134.008 91.336 133.816C91.336 133.608 91.192 133.48 90.952 133.48C90.824 133.48 90.664 133.512 90.552 133.544C89.896 133.736 89.224 134.184 88.872 135.016ZM93.622 134.808V133.928C93.622 133.688 93.478 133.544 93.286 133.544C93.11 133.544 92.966 133.688 92.966 133.928V140.712C92.966 140.952 93.11 141.096 93.286 141.096C93.478 141.096 93.622 140.952 93.622 140.712V136.6C93.622 135.176 94.55 134.072 95.942 134.072C97.142 134.072 97.958 134.888 97.958 136.808V140.712C97.958 140.952 98.102 141.096 98.278 141.096C98.47 141.096 98.614 140.952 98.614 140.712V136.776C98.614 134.632 97.606 133.448 95.958 133.448C94.886 133.448 94.102 133.96 93.622 134.808ZM105.302 136.744H103.91C102.23 136.744 100.502 137.176 100.502 138.952C100.502 140.28 101.462 141.192 102.918 141.192C104.07 141.192 104.902 140.616 105.334 139.816C105.43 140.504 105.814 141.096 106.646 141.096C106.87 141.096 107.014 140.952 107.014 140.792C107.014 140.616 106.87 140.472 106.646 140.472C106.182 140.472 105.958 140.088 105.958 139.304V135.976C105.958 134.248 104.87 133.448 103.398 133.448C102.598 133.448 101.846 133.672 101.238 134.248C101.11 134.376 101.062 134.472 101.062 134.584C101.062 134.776 101.174 134.888 101.35 134.888C101.494 134.888 101.59 134.808 101.654 134.744C102.118 134.28 102.71 134.072 103.382 134.072C104.454 134.072 105.302 134.664 105.302 136.008V136.744ZM105.302 137.368V138.04C105.302 139.464 104.39 140.568 102.95 140.568C101.846 140.568 101.174 139.944 101.174 138.984C101.174 137.592 102.566 137.368 103.958 137.368H105.302ZM109.341 134.808V133.928C109.341 133.688 109.197 133.544 109.005 133.544C108.829 133.544 108.685 133.688 108.685 133.928V140.712C108.685 140.952 108.829 141.096 109.005 141.096C109.197 141.096 109.341 140.952 109.341 140.712V136.6C109.341 135.176 110.269 134.072 111.661 134.072C112.861 134.072 113.677 134.888 113.677 136.808V140.712C113.677 140.952 113.821 141.096 113.997 141.096C114.189 141.096 114.333 140.952 114.333 140.712V136.776C114.333 134.632 113.325 133.448 111.677 133.448C110.605 133.448 109.821 133.96 109.341 134.808ZM119.484 141.192C120.348 141.192 121.052 140.888 121.58 140.376C121.676 140.28 121.74 140.184 121.74 140.056C121.74 139.88 121.612 139.752 121.452 139.752C121.34 139.752 121.228 139.8 121.116 139.912C120.732 140.28 120.204 140.568 119.484 140.568C117.852 140.568 116.876 139.08 116.876 137.32C116.876 135.56 117.852 134.072 119.484 134.072C120.204 134.072 120.732 134.36 121.116 134.728C121.228 134.84 121.34 134.888 121.452 134.888C121.612 134.888 121.74 134.76 121.74 134.584C121.74 134.456 121.676 134.36 121.58 134.264C121.052 133.752 120.348 133.448 119.484 133.448C117.42 133.448 116.22 135.224 116.22 137.32C116.22 139.416 117.42 141.192 119.484 141.192ZM123.752 137.016C123.832 135.336 124.728 134.072 126.184 134.072C127.656 134.072 128.52 135.352 128.616 137.016H123.752ZM127.976 139.912C127.592 140.28 127.064 140.568 126.344 140.568C124.712 140.568 123.832 139.112 123.752 137.64H128.952C129.144 137.64 129.272 137.512 129.272 137.32C129.272 135.176 128.136 133.448 126.184 133.448C124.216 133.448 123.08 135.224 123.08 137.32C123.08 139.416 124.28 141.192 126.344 141.192C127.208 141.192 127.912 140.888 128.44 140.376C128.536 140.28 128.6 140.184 128.6 140.056C128.6 139.88 128.472 139.752 128.312 139.752C128.2 139.752 128.088 139.8 127.976 139.912ZM137.156 140.568C135.524 140.568 134.548 139.08 134.548 137.32C134.548 135.56 135.524 134.072 137.156 134.072C138.788 134.072 139.764 135.56 139.764 137.32C139.764 139.08 138.788 140.568 137.156 140.568ZM137.156 141.192C139.22 141.192 140.42 139.416 140.42 137.32C140.42 135.224 139.22 133.448 137.156 133.448C135.092 133.448 133.892 135.224 133.892 137.32C133.892 139.416 135.092 141.192 137.156 141.192ZM144.17 141.112C144.33 141.112 144.442 140.984 144.506 140.824L147.002 134.136C147.034 134.04 147.066 133.944 147.066 133.848C147.066 133.672 146.954 133.544 146.762 133.544C146.57 133.544 146.474 133.688 146.41 133.864L144.17 139.912L141.93 133.864C141.866 133.688 141.77 133.544 141.578 133.544C141.386 133.544 141.274 133.672 141.274 133.848C141.274 133.944 141.306 134.04 141.338 134.136L143.834 140.824C143.898 140.984 144.01 141.112 144.17 141.112ZM148.596 137.016C148.676 135.336 149.572 134.072 151.028 134.072C152.5 134.072 153.364 135.352 153.46 137.016H148.596ZM152.82 139.912C152.436 140.28 151.908 140.568 151.188 140.568C149.556 140.568 148.676 139.112 148.596 137.64H153.796C153.988 137.64 154.116 137.512 154.116 137.32C154.116 135.176 152.98 133.448 151.028 133.448C149.06 133.448 147.924 135.224 147.924 137.32C147.924 139.416 149.124 141.192 151.188 141.192C152.052 141.192 152.756 140.888 153.284 140.376C153.38 140.28 153.444 140.184 153.444 140.056C153.444 139.88 153.316 139.752 153.156 139.752C153.044 139.752 152.932 139.8 152.82 139.912ZM156.669 135.016V133.928C156.669 133.688 156.525 133.544 156.333 133.544C156.157 133.544 156.013 133.688 156.013 133.928V140.712C156.013 140.952 156.157 141.096 156.333 141.096C156.525 141.096 156.669 140.952 156.669 140.712V137.336C156.669 135.176 157.661 134.248 158.765 134.152C159.005 134.136 159.133 134.008 159.133 133.816C159.133 133.608 158.989 133.48 158.749 133.48C158.621 133.48 158.461 133.512 158.349 133.544C157.693 133.736 157.021 134.184 156.669 135.016ZM164.622 139.544C165.07 140.536 165.95 141.192 167.07 141.192C169.006 141.192 170.126 139.416 170.126 137.32C170.126 135.224 169.006 133.448 167.07 133.448C165.95 133.448 165.07 134.104 164.622 135.096V133.928C164.622 133.688 164.478 133.544 164.286 133.544C164.11 133.544 163.966 133.688 163.966 133.928V143.56C163.966 143.8 164.11 143.944 164.286 143.944C164.478 143.944 164.622 143.8 164.622 143.56V139.544ZM167.038 140.568C165.518 140.568 164.606 139.08 164.606 137.32C164.606 135.56 165.518 134.072 167.038 134.072C168.558 134.072 169.47 135.56 169.47 137.32C169.47 139.08 168.558 140.568 167.038 140.568ZM172.731 135.016V133.928C172.731 133.688 172.587 133.544 172.395 133.544C172.219 133.544 172.075 133.688 172.075 133.928V140.712C172.075 140.952 172.219 141.096 172.395 141.096C172.587 141.096 172.731 140.952 172.731 140.712V137.336C172.731 135.176 173.723 134.248 174.827 134.152C175.067 134.136 175.195 134.008 175.195 133.816C175.195 133.608 175.051 133.48 174.811 133.48C174.683 133.48 174.523 133.512 174.411 133.544C173.755 133.736 173.083 134.184 172.731 135.016ZM179.297 140.568C177.665 140.568 176.689 139.08 176.689 137.32C176.689 135.56 177.665 134.072 179.297 134.072C180.929 134.072 181.905 135.56 181.905 137.32C181.905 139.08 180.929 140.568 179.297 140.568ZM179.297 141.192C181.361 141.192 182.561 139.416 182.561 137.32C182.561 135.224 181.361 133.448 179.297 133.448C177.233 133.448 176.033 135.224 176.033 137.32C176.033 139.416 177.233 141.192 179.297 141.192ZM187.297 141.192C188.161 141.192 188.865 140.888 189.393 140.376C189.489 140.28 189.553 140.184 189.553 140.056C189.553 139.88 189.425 139.752 189.265 139.752C189.153 139.752 189.041 139.8 188.929 139.912C188.545 140.28 188.017 140.568 187.297 140.568C185.665 140.568 184.689 139.08 184.689 137.32C184.689 135.56 185.665 134.072 187.297 134.072C188.017 134.072 188.545 134.36 188.929 134.728C189.041 134.84 189.153 134.888 189.265 134.888C189.425 134.888 189.553 134.76 189.553 134.584C189.553 134.456 189.489 134.36 189.393 134.264C188.865 133.752 188.161 133.448 187.297 133.448C185.233 133.448 184.033 135.224 184.033 137.32C184.033 139.416 185.233 141.192 187.297 141.192ZM191.564 137.016C191.644 135.336 192.54 134.072 193.996 134.072C195.468 134.072 196.332 135.352 196.428 137.016H191.564ZM195.788 139.912C195.404 140.28 194.876 140.568 194.156 140.568C192.524 140.568 191.644 139.112 191.564 137.64H196.764C196.956 137.64 197.084 137.512 197.084 137.32C197.084 135.176 195.948 133.448 193.996 133.448C192.028 133.448 190.892 135.224 190.892 137.32C190.892 139.416 192.092 141.192 194.156 141.192C195.02 141.192 195.724 140.888 196.252 140.376C196.348 140.28 196.412 140.184 196.412 140.056C196.412 139.88 196.284 139.752 196.124 139.752C196.012 139.752 195.9 139.8 195.788 139.912ZM198.55 140.296C199.062 140.824 199.83 141.192 200.87 141.192C202.47 141.192 203.43 140.312 203.43 139.064C203.43 137.576 202.07 137.224 201.03 136.968C200.054 136.728 199.27 136.568 199.27 135.48C199.27 134.584 199.814 134.056 200.886 134.056C201.494 134.056 201.958 134.216 202.358 134.504C202.47 134.584 202.566 134.632 202.694 134.632C202.87 134.632 202.982 134.504 202.982 134.344C202.982 134.2 202.902 134.088 202.79 134.008C202.326 133.656 201.606 133.448 200.886 133.448C199.446 133.448 198.614 134.248 198.614 135.496C198.614 137.096 199.958 137.384 200.838 137.592C201.99 137.864 202.774 138.104 202.774 139.048C202.774 139.944 202.118 140.584 200.854 140.584C199.99 140.584 199.43 140.28 198.998 139.832C198.918 139.752 198.822 139.704 198.71 139.704C198.534 139.704 198.422 139.832 198.422 140.008C198.422 140.12 198.47 140.216 198.55 140.296ZM204.862 140.296C205.374 140.824 206.142 141.192 207.182 141.192C208.782 141.192 209.742 140.312 209.742 139.064C209.742 137.576 208.382 137.224 207.342 136.968C206.366 136.728 205.582 136.568 205.582 135.48C205.582 134.584 206.126 134.056 207.198 134.056C207.806 134.056 208.27 134.216 208.67 134.504C208.782 134.584 208.878 134.632 209.006 134.632C209.182 134.632 209.294 134.504 209.294 134.344C209.294 134.2 209.214 134.088 209.102 134.008C208.638 133.656 207.918 133.448 207.198 133.448C205.758 133.448 204.926 134.248 204.926 135.496C204.926 137.096 206.27 137.384 207.15 137.592C208.302 137.864 209.086 138.104 209.086 139.048C209.086 139.944 208.43 140.584 207.166 140.584C206.302 140.584 205.742 140.28 205.31 139.832C205.23 139.752 205.134 139.704 205.022 139.704C204.846 139.704 204.734 139.832 204.734 140.008C204.734 140.12 204.782 140.216 204.862 140.296ZM211.687 143.304C211.863 143.304 211.975 143.192 212.039 143L213.063 139.512C213.095 139.4 213.111 139.32 213.111 139.256C213.111 139.048 212.967 138.936 212.807 138.936C212.631 138.936 212.519 139.048 212.455 139.24L211.431 142.728C211.399 142.84 211.383 142.92 211.383 142.984C211.383 143.192 211.527 143.304 211.687 143.304ZM4 167.192C4.864 167.192 5.568 166.888 6.096 166.376C6.192 166.28 6.256 166.184 6.256 166.056C6.256 165.88 6.128 165.752 5.968 165.752C5.856 165.752 5.744 165.8 5.632 165.912C5.248 166.28 4.72 166.568 4 166.568C2.368 166.568 1.392 165.08 1.392 163.32C1.392 161.56 2.368 160.072 4 160.072C4.72 160.072 5.248 160.36 5.632 160.728C5.744 160.84 5.856 160.888 5.968 160.888C6.128 160.888 6.256 160.76 6.256 160.584C6.256 160.456 6.192 160.36 6.096 160.264C5.568 159.752 4.864 159.448 4 159.448C1.936 159.448 0.736 161.224 0.736 163.32C0.736 165.416 1.936 167.192 4 167.192ZM10.8594 166.568C9.22738 166.568 8.25138 165.08 8.25138 163.32C8.25138 161.56 9.22738 160.072 10.8594 160.072C12.4914 160.072 13.4674 161.56 13.4674 163.32C13.4674 165.08 12.4914 166.568 10.8594 166.568ZM10.8594 167.192C12.9234 167.192 14.1234 165.416 14.1234 163.32C14.1234 161.224 12.9234 159.448 10.8594 159.448C8.79538 159.448 7.59538 161.224 7.59538 163.32C7.59538 165.416 8.79538 167.192 10.8594 167.192ZM18.6834 166.568C17.1634 166.568 16.2514 165.08 16.2514 163.32C16.2514 161.56 17.1634 160.072 18.6834 160.072C20.2034 160.072 21.1154 161.56 21.1154 163.32C21.1154 165.08 20.2034 166.568 18.6834 166.568ZM21.0994 165.544V166.712C21.0994 166.952 21.2434 167.096 21.4354 167.096C21.6114 167.096 21.7554 166.952 21.7554 166.712V156.76C21.7554 156.52 21.6114 156.376 21.4354 156.376C21.2434 156.376 21.0994 156.52 21.0994 156.76V161.096C20.6514 160.104 19.7714 159.448 18.6514 159.448C16.7154 159.448 15.5954 161.224 15.5954 163.32C15.5954 165.416 16.7154 167.192 18.6514 167.192C19.7714 167.192 20.6514 166.536 21.0994 165.544ZM24.3768 163.016C24.4568 161.336 25.3528 160.072 26.8088 160.072C28.2808 160.072 29.1448 161.352 29.2408 163.016H24.3768ZM28.6008 165.912C28.2168 166.28 27.6888 166.568 26.9688 166.568C25.3368 166.568 24.4568 165.112 24.3768 163.64H29.5768C29.7688 163.64 29.8968 163.512 29.8968 163.32C29.8968 161.176 28.7608 159.448 26.8088 159.448C24.8408 159.448 23.7048 161.224 23.7048 163.32C23.7048 165.416 24.9048 167.192 26.9688 167.192C27.8328 167.192 28.5368 166.888 29.0648 166.376C29.1608 166.28 29.2248 166.184 29.2248 166.056C29.2248 165.88 29.0968 165.752 28.9368 165.752C28.8248 165.752 28.7128 165.8 28.6008 165.912ZM31.2335 169.304C31.4095 169.304 31.5215 169.192 31.5855 169L32.6095 165.512C32.6415 165.4 32.6575 165.32 32.6575 165.256C32.6575 165.048 32.5135 164.936 32.3535 164.936C32.1775 164.936 32.0655 165.048 32.0015 165.24L30.9775 168.728C30.9455 168.84 30.9295 168.92 30.9295 168.984C30.9295 169.192 31.0735 169.304 31.2335 169.304ZM42.3954 162.744H41.0034C39.3234 162.744 37.5954 163.176 37.5954 164.952C37.5954 166.28 38.5554 167.192 40.0114 167.192C41.1634 167.192 41.9954 166.616 42.4274 165.816C42.5234 166.504 42.9074 167.096 43.7394 167.096C43.9634 167.096 44.1074 166.952 44.1074 166.792C44.1074 166.616 43.9634 166.472 43.7394 166.472C43.2754 166.472 43.0514 166.088 43.0514 165.304V161.976C43.0514 160.248 41.9634 159.448 40.4914 159.448C39.6914 159.448 38.9394 159.672 38.3314 160.248C38.2034 160.376 38.1554 160.472 38.1554 160.584C38.1554 160.776 38.2674 160.888 38.4434 160.888C38.5874 160.888 38.6834 160.808 38.7474 160.744C39.2114 160.28 39.8034 160.072 40.4754 160.072C41.5474 160.072 42.3954 160.664 42.3954 162.008V162.744ZM42.3954 163.368V164.04C42.3954 165.464 41.4834 166.568 40.0434 166.568C38.9394 166.568 38.2674 165.944 38.2674 164.984C38.2674 163.592 39.6594 163.368 41.0514 163.368H42.3954ZM46.4345 160.808V159.928C46.4345 159.688 46.2905 159.544 46.0985 159.544C45.9225 159.544 45.7785 159.688 45.7785 159.928V166.712C45.7785 166.952 45.9225 167.096 46.0985 167.096C46.2905 167.096 46.4345 166.952 46.4345 166.712V162.6C46.4345 161.176 47.3625 160.072 48.7545 160.072C49.9545 160.072 50.7705 160.888 50.7705 162.808V166.712C50.7705 166.952 50.9145 167.096 51.0905 167.096C51.2825 167.096 51.4265 166.952 51.4265 166.712V162.776C51.4265 160.632 50.4185 159.448 48.7705 159.448C47.6985 159.448 46.9145 159.96 46.4345 160.808ZM56.4021 166.568C54.8821 166.568 53.9701 165.08 53.9701 163.32C53.9701 161.56 54.8821 160.072 56.4021 160.072C57.9221 160.072 58.8341 161.56 58.8341 163.32C58.8341 165.08 57.9221 166.568 56.4021 166.568ZM58.8181 165.544V166.712C58.8181 166.952 58.9621 167.096 59.1541 167.096C59.3301 167.096 59.4741 166.952 59.4741 166.712V156.76C59.4741 156.52 59.3301 156.376 59.1541 156.376C58.9621 156.376 58.8181 156.52 58.8181 156.76V161.096C58.3701 160.104 57.4901 159.448 56.3701 159.448C54.4341 159.448 53.3141 161.224 53.3141 163.32C53.3141 165.416 54.4341 167.192 56.3701 167.192C57.4901 167.192 58.3701 166.536 58.8181 165.544ZM65.4426 157.864C65.7146 157.864 65.9386 157.64 65.9386 157.368C65.9386 157.096 65.7146 156.872 65.4426 156.872C65.1706 156.872 64.9466 157.096 64.9466 157.368C64.9466 157.64 65.1706 157.864 65.4426 157.864ZM65.4426 167.096C65.6346 167.096 65.7786 166.952 65.7786 166.712V159.928C65.7786 159.688 65.6346 159.544 65.4426 159.544C65.2666 159.544 65.1226 159.688 65.1226 159.928V166.712C65.1226 166.952 65.2666 167.096 65.4426 167.096ZM68.872 160.808V159.928C68.872 159.688 68.728 159.544 68.536 159.544C68.36 159.544 68.216 159.688 68.216 159.928V166.712C68.216 166.952 68.36 167.096 68.536 167.096C68.728 167.096 68.872 166.952 68.872 166.712V162.6C68.872 161.176 69.8 160.072 71.192 160.072C72.392 160.072 73.208 160.888 73.208 162.808V166.712C73.208 166.952 73.352 167.096 73.528 167.096C73.72 167.096 73.864 166.952 73.864 166.712V162.776C73.864 160.632 72.856 159.448 71.208 159.448C70.136 159.448 69.352 159.96 68.872 160.808ZM77.3516 160.264H79.1596C79.3836 160.264 79.5276 160.12 79.5276 159.96C79.5276 159.784 79.3836 159.64 79.1596 159.64H77.3516V158.648C77.3516 157.416 77.8156 156.952 78.5836 156.952C78.9836 156.952 79.1276 157.096 79.3516 157.096C79.5596 157.096 79.6716 156.984 79.6716 156.808C79.6716 156.648 79.5596 156.536 79.4156 156.472C79.1756 156.36 78.8236 156.328 78.5676 156.328C77.3996 156.328 76.6956 156.952 76.6956 158.648V159.64H75.7196C75.4956 159.64 75.3516 159.784 75.3516 159.96C75.3516 160.12 75.4956 160.264 75.7196 160.264H76.6956V166.712C76.6956 166.952 76.8396 167.096 77.0156 167.096C77.2076 167.096 77.3516 166.952 77.3516 166.712V160.264ZM81.9189 161.016V159.928C81.9189 159.688 81.7749 159.544 81.5829 159.544C81.4069 159.544 81.2629 159.688 81.2629 159.928V166.712C81.2629 166.952 81.4069 167.096 81.5829 167.096C81.7749 167.096 81.9189 166.952 81.9189 166.712V163.336C81.9189 161.176 82.9109 160.248 84.0149 160.152C84.2549 160.136 84.3829 160.008 84.3829 159.816C84.3829 159.608 84.2389 159.48 83.9989 159.48C83.8709 159.48 83.7109 159.512 83.5989 159.544C82.9429 159.736 82.2709 160.184 81.9189 161.016ZM89.8485 162.744H88.4565C86.7765 162.744 85.0485 163.176 85.0485 164.952C85.0485 166.28 86.0085 167.192 87.4645 167.192C88.6165 167.192 89.4485 166.616 89.8805 165.816C89.9765 166.504 90.3605 167.096 91.1925 167.096C91.4165 167.096 91.5605 166.952 91.5605 166.792C91.5605 166.616 91.4165 166.472 91.1925 166.472C90.7285 166.472 90.5045 166.088 90.5045 165.304V161.976C90.5045 160.248 89.4165 159.448 87.9445 159.448C87.1445 159.448 86.3925 159.672 85.7845 160.248C85.6565 160.376 85.6085 160.472 85.6085 160.584C85.6085 160.776 85.7205 160.888 85.8965 160.888C86.0405 160.888 86.1365 160.808 86.2005 160.744C86.6645 160.28 87.2565 160.072 87.9285 160.072C89.0005 160.072 89.8485 160.664 89.8485 162.008V162.744ZM89.8485 163.368V164.04C89.8485 165.464 88.9365 166.568 87.4965 166.568C86.3925 166.568 85.7205 165.944 85.7205 164.984C85.7205 163.592 87.1125 163.368 88.5045 163.368H89.8485ZM92.7996 166.296C93.3116 166.824 94.0796 167.192 95.1196 167.192C96.7196 167.192 97.6796 166.312 97.6796 165.064C97.6796 163.576 96.3196 163.224 95.2796 162.968C94.3036 162.728 93.5196 162.568 93.5196 161.48C93.5196 160.584 94.0636 160.056 95.1356 160.056C95.7436 160.056 96.2076 160.216 96.6076 160.504C96.7196 160.584 96.8156 160.632 96.9436 160.632C97.1196 160.632 97.2316 160.504 97.2316 160.344C97.2316 160.2 97.1516 160.088 97.0396 160.008C96.5756 159.656 95.8556 159.448 95.1356 159.448C93.6956 159.448 92.8636 160.248 92.8636 161.496C92.8636 163.096 94.2076 163.384 95.0876 163.592C96.2396 163.864 97.0236 164.104 97.0236 165.048C97.0236 165.944 96.3676 166.584 95.1036 166.584C94.2396 166.584 93.6796 166.28 93.2476 165.832C93.1676 165.752 93.0716 165.704 92.9596 165.704C92.7836 165.704 92.6716 165.832 92.6716 166.008C92.6716 166.12 92.7196 166.216 92.7996 166.296ZM100.664 160.264H102.472C102.696 160.264 102.84 160.12 102.84 159.944C102.84 159.784 102.696 159.64 102.472 159.64H100.664V157.88C100.664 157.64 100.52 157.496 100.328 157.496C100.152 157.496 100.008 157.64 100.008 157.88V159.64H99.0321C98.8081 159.64 98.6641 159.784 98.6641 159.944C98.6641 160.12 98.8081 160.264 99.0321 160.264H100.008V164.824C100.008 166.52 100.712 167.144 101.88 167.144C102.136 167.144 102.488 167.112 102.728 167C102.872 166.936 102.984 166.824 102.984 166.664C102.984 166.488 102.872 166.376 102.664 166.376C102.44 166.376 102.296 166.52 101.896 166.52C101.128 166.52 100.664 166.056 100.664 164.824V160.264ZM105.231 161.016V159.928C105.231 159.688 105.087 159.544 104.895 159.544C104.719 159.544 104.575 159.688 104.575 159.928V166.712C104.575 166.952 104.719 167.096 104.895 167.096C105.087 167.096 105.231 166.952 105.231 166.712V163.336C105.231 161.176 106.223 160.248 107.327 160.152C107.567 160.136 107.695 160.008 107.695 159.816C107.695 159.608 107.551 159.48 107.311 159.48C107.183 159.48 107.023 159.512 106.911 159.544C106.255 159.736 105.583 160.184 105.231 161.016ZM114.253 165.832V166.712C114.253 166.952 114.397 167.096 114.589 167.096C114.765 167.096 114.909 166.952 114.909 166.712V159.928C114.909 159.688 114.765 159.544 114.589 159.544C114.397 159.544 114.253 159.688 114.253 159.928V164.04C114.253 165.464 113.325 166.568 111.933 166.568C110.733 166.568 109.917 165.752 109.917 163.832V159.928C109.917 159.688 109.773 159.544 109.597 159.544C109.405 159.544 109.261 159.688 109.261 159.928V163.864C109.261 166.008 110.269 167.192 111.917 167.192C112.989 167.192 113.773 166.68 114.253 165.832ZM120.125 167.192C120.989 167.192 121.693 166.888 122.221 166.376C122.317 166.28 122.381 166.184 122.381 166.056C122.381 165.88 122.253 165.752 122.093 165.752C121.981 165.752 121.869 165.8 121.757 165.912C121.373 166.28 120.845 166.568 120.125 166.568C118.493 166.568 117.517 165.08 117.517 163.32C117.517 161.56 118.493 160.072 120.125 160.072C120.845 160.072 121.373 160.36 121.757 160.728C121.869 160.84 121.981 160.888 122.093 160.888C122.253 160.888 122.381 160.76 122.381 160.584C122.381 160.456 122.317 160.36 122.221 160.264C121.693 159.752 120.989 159.448 120.125 159.448C118.061 159.448 116.861 161.224 116.861 163.32C116.861 165.416 118.061 167.192 120.125 167.192ZM125.399 160.264H127.207C127.431 160.264 127.575 160.12 127.575 159.944C127.575 159.784 127.431 159.64 127.207 159.64H125.399V157.88C125.399 157.64 125.255 157.496 125.062 157.496C124.887 157.496 124.743 157.64 124.743 157.88V159.64H123.767C123.543 159.64 123.399 159.784 123.399 159.944C123.399 160.12 123.543 160.264 123.767 160.264H124.743V164.824C124.743 166.52 125.447 167.144 126.615 167.144C126.871 167.144 127.223 167.112 127.463 167C127.607 166.936 127.719 166.824 127.719 166.664C127.719 166.488 127.607 166.376 127.399 166.376C127.174 166.376 127.031 166.52 126.631 166.52C125.863 166.52 125.399 166.056 125.399 164.824V160.264ZM134.238 165.832V166.712C134.238 166.952 134.382 167.096 134.574 167.096C134.75 167.096 134.894 166.952 134.894 166.712V159.928C134.894 159.688 134.75 159.544 134.574 159.544C134.382 159.544 134.238 159.688 134.238 159.928V164.04C134.238 165.464 133.31 166.568 131.918 166.568C130.718 166.568 129.902 165.752 129.902 163.832V159.928C129.902 159.688 129.758 159.544 129.582 159.544C129.39 159.544 129.246 159.688 129.246 159.928V163.864C129.246 166.008 130.254 167.192 131.902 167.192C132.974 167.192 133.758 166.68 134.238 165.832ZM137.981 161.016V159.928C137.981 159.688 137.837 159.544 137.645 159.544C137.469 159.544 137.325 159.688 137.325 159.928V166.712C137.325 166.952 137.469 167.096 137.645 167.096C137.837 167.096 137.981 166.952 137.981 166.712V163.336C137.981 161.176 138.973 160.248 140.077 160.152C140.317 160.136 140.445 160.008 140.445 159.816C140.445 159.608 140.301 159.48 140.061 159.48C139.933 159.48 139.773 159.512 139.661 159.544C139.005 159.736 138.333 160.184 137.981 161.016ZM141.955 163.016C142.035 161.336 142.931 160.072 144.387 160.072C145.859 160.072 146.723 161.352 146.819 163.016H141.955ZM146.179 165.912C145.795 166.28 145.267 166.568 144.547 166.568C142.915 166.568 142.035 165.112 141.955 163.64H147.155C147.347 163.64 147.475 163.512 147.475 163.32C147.475 161.176 146.339 159.448 144.387 159.448C142.419 159.448 141.283 161.224 141.283 163.32C141.283 165.416 142.483 167.192 144.547 167.192C145.411 167.192 146.115 166.888 146.643 166.376C146.739 166.28 146.803 166.184 146.803 166.056C146.803 165.88 146.675 165.752 146.515 165.752C146.403 165.752 146.291 165.8 146.179 165.912ZM156.895 162.744H155.503C153.823 162.744 152.095 163.176 152.095 164.952C152.095 166.28 153.055 167.192 154.511 167.192C155.663 167.192 156.495 166.616 156.927 165.816C157.023 166.504 157.407 167.096 158.239 167.096C158.463 167.096 158.607 166.952 158.607 166.792C158.607 166.616 158.463 166.472 158.239 166.472C157.775 166.472 157.551 166.088 157.551 165.304V161.976C157.551 160.248 156.463 159.448 154.991 159.448C154.191 159.448 153.439 159.672 152.831 160.248C152.703 160.376 152.655 160.472 152.655 160.584C152.655 160.776 152.767 160.888 152.943 160.888C153.087 160.888 153.183 160.808 153.247 160.744C153.711 160.28 154.303 160.072 154.975 160.072C156.047 160.072 156.895 160.664 156.895 162.008V162.744ZM156.895 163.368V164.04C156.895 165.464 155.983 166.568 154.543 166.568C153.439 166.568 152.767 165.944 152.767 164.984C152.767 163.592 154.159 163.368 155.551 163.368H156.895ZM162.984 167.192C163.848 167.192 164.552 166.888 165.08 166.376C165.176 166.28 165.24 166.184 165.24 166.056C165.24 165.88 165.112 165.752 164.952 165.752C164.84 165.752 164.728 165.8 164.616 165.912C164.232 166.28 163.704 166.568 162.984 166.568C161.352 166.568 160.376 165.08 160.376 163.32C160.376 161.56 161.352 160.072 162.984 160.072C163.704 160.072 164.232 160.36 164.616 160.728C164.728 160.84 164.84 160.888 164.952 160.888C165.112 160.888 165.24 160.76 165.24 160.584C165.24 160.456 165.176 160.36 165.08 160.264C164.552 159.752 163.848 159.448 162.984 159.448C160.92 159.448 159.72 161.224 159.72 163.32C159.72 165.416 160.92 167.192 162.984 167.192ZM167.794 161.016V159.928C167.794 159.688 167.65 159.544 167.458 159.544C167.282 159.544 167.138 159.688 167.138 159.928V166.712C167.138 166.952 167.282 167.096 167.458 167.096C167.65 167.096 167.794 166.952 167.794 166.712V163.336C167.794 161.176 168.786 160.248 169.89 160.152C170.13 160.136 170.258 160.008 170.258 159.816C170.258 159.608 170.114 159.48 169.874 159.48C169.746 159.48 169.586 159.512 169.474 159.544C168.818 159.736 168.146 160.184 167.794 161.016ZM174.359 166.568C172.727 166.568 171.751 165.08 171.751 163.32C171.751 161.56 172.727 160.072 174.359 160.072C175.991 160.072 176.967 161.56 176.967 163.32C176.967 165.08 175.991 166.568 174.359 166.568ZM174.359 167.192C176.423 167.192 177.623 165.416 177.623 163.32C177.623 161.224 176.423 159.448 174.359 159.448C172.295 159.448 171.095 161.224 171.095 163.32C171.095 165.416 172.295 167.192 174.359 167.192ZM179.143 166.296C179.655 166.824 180.423 167.192 181.463 167.192C183.063 167.192 184.023 166.312 184.023 165.064C184.023 163.576 182.663 163.224 181.623 162.968C180.647 162.728 179.863 162.568 179.863 161.48C179.863 160.584 180.407 160.056 181.479 160.056C182.087 160.056 182.551 160.216 182.951 160.504C183.063 160.584 183.159 160.632 183.287 160.632C183.463 160.632 183.575 160.504 183.575 160.344C183.575 160.2 183.495 160.088 183.383 160.008C182.919 159.656 182.199 159.448 181.479 159.448C180.039 159.448 179.207 160.248 179.207 161.496C179.207 163.096 180.551 163.384 181.431 163.592C182.583 163.864 183.367 164.104 183.367 165.048C183.367 165.944 182.711 166.584 181.447 166.584C180.583 166.584 180.023 166.28 179.591 165.832C179.511 165.752 179.415 165.704 179.303 165.704C179.127 165.704 179.015 165.832 179.015 166.008C179.015 166.12 179.063 166.216 179.143 166.296ZM185.456 166.296C185.968 166.824 186.736 167.192 187.776 167.192C189.376 167.192 190.336 166.312 190.336 165.064C190.336 163.576 188.976 163.224 187.936 162.968C186.96 162.728 186.176 162.568 186.176 161.48C186.176 160.584 186.72 160.056 187.792 160.056C188.4 160.056 188.864 160.216 189.264 160.504C189.376 160.584 189.472 160.632 189.6 160.632C189.776 160.632 189.888 160.504 189.888 160.344C189.888 160.2 189.808 160.088 189.696 160.008C189.232 159.656 188.512 159.448 187.792 159.448C186.352 159.448 185.52 160.248 185.52 161.496C185.52 163.096 186.864 163.384 187.744 163.592C188.896 163.864 189.68 164.104 189.68 165.048C189.68 165.944 189.024 166.584 187.76 166.584C186.896 166.584 186.336 166.28 185.904 165.832C185.824 165.752 185.728 165.704 185.616 165.704C185.44 165.704 185.328 165.832 185.328 166.008C185.328 166.12 185.376 166.216 185.456 166.296ZM3.824 192.568C2.304 192.568 1.392 191.08 1.392 189.32C1.392 187.56 2.304 186.072 3.824 186.072C5.344 186.072 6.256 187.56 6.256 189.32C6.256 191.08 5.344 192.568 3.824 192.568ZM6.24 191.544V192.712C6.24 192.952 6.384 193.096 6.576 193.096C6.752 193.096 6.896 192.952 6.896 192.712V182.76C6.896 182.52 6.752 182.376 6.576 182.376C6.384 182.376 6.24 182.52 6.24 182.76V187.096C5.792 186.104 4.912 185.448 3.792 185.448C1.856 185.448 0.736 187.224 0.736 189.32C0.736 191.416 1.856 193.192 3.792 193.192C4.912 193.192 5.792 192.536 6.24 191.544ZM9.66138 183.864C9.93338 183.864 10.1574 183.64 10.1574 183.368C10.1574 183.096 9.93338 182.872 9.66138 182.872C9.38938 182.872 9.16537 183.096 9.16537 183.368C9.16537 183.64 9.38938 183.864 9.66138 183.864ZM9.66138 193.096C9.85338 193.096 9.99738 192.952 9.99738 192.712V185.928C9.99738 185.688 9.85338 185.544 9.66138 185.544C9.48538 185.544 9.34138 185.688 9.34138 185.928V192.712C9.34138 192.952 9.48538 193.096 9.66138 193.096ZM12.0028 192.296C12.5148 192.824 13.2828 193.192 14.3228 193.192C15.9227 193.192 16.8828 192.312 16.8828 191.064C16.8828 189.576 15.5228 189.224 14.4828 188.968C13.5068 188.728 12.7228 188.568 12.7228 187.48C12.7228 186.584 13.2668 186.056 14.3388 186.056C14.9468 186.056 15.4108 186.216 15.8108 186.504C15.9227 186.584 16.0188 186.632 16.1468 186.632C16.3228 186.632 16.4348 186.504 16.4348 186.344C16.4348 186.2 16.3548 186.088 16.2428 186.008C15.7788 185.656 15.0588 185.448 14.3388 185.448C12.8988 185.448 12.0668 186.248 12.0668 187.496C12.0668 189.096 13.4108 189.384 14.2908 189.592C15.4427 189.864 16.2268 190.104 16.2268 191.048C16.2268 191.944 15.5708 192.584 14.3068 192.584C13.4428 192.584 12.8828 192.28 12.4508 191.832C12.3708 191.752 12.2747 191.704 12.1628 191.704C11.9868 191.704 11.8748 191.832 11.8748 192.008C11.8748 192.12 11.9228 192.216 12.0028 192.296ZM19.8673 186.264H21.6753C21.8993 186.264 22.0433 186.12 22.0433 185.944C22.0433 185.784 21.8993 185.64 21.6753 185.64H19.8673V183.88C19.8673 183.64 19.7233 183.496 19.5312 183.496C19.3553 183.496 19.2113 183.64 19.2113 183.88V185.64H18.2353C18.0113 185.64 17.8673 185.784 17.8673 185.944C17.8673 186.12 18.0113 186.264 18.2353 186.264H19.2113V190.824C19.2113 192.52 19.9153 193.144 21.0833 193.144C21.3393 193.144 21.6913 193.112 21.9313 193C22.0753 192.936 22.1873 192.824 22.1873 192.664C22.1873 192.488 22.0753 192.376 21.8673 192.376C21.6432 192.376 21.4993 192.52 21.0993 192.52C20.3313 192.52 19.8673 192.056 19.8673 190.824V186.264ZM24.4345 187.016V185.928C24.4345 185.688 24.2905 185.544 24.0985 185.544C23.9225 185.544 23.7785 185.688 23.7785 185.928V192.712C23.7785 192.952 23.9225 193.096 24.0985 193.096C24.2905 193.096 24.4345 192.952 24.4345 192.712V189.336C24.4345 187.176 25.4265 186.248 26.5305 186.152C26.7705 186.136 26.8985 186.008 26.8985 185.816C26.8985 185.608 26.7545 185.48 26.5145 185.48C26.3865 185.48 26.2265 185.512 26.1145 185.544C25.4585 185.736 24.7865 186.184 24.4345 187.016ZM28.8645 183.864C29.1365 183.864 29.3605 183.64 29.3605 183.368C29.3605 183.096 29.1365 182.872 28.8645 182.872C28.5925 182.872 28.3685 183.096 28.3685 183.368C28.3685 183.64 28.5925 183.864 28.8645 183.864ZM28.8645 193.096C29.0565 193.096 29.2005 192.952 29.2005 192.712V185.928C29.2005 185.688 29.0565 185.544 28.8645 185.544C28.6885 185.544 28.5445 185.688 28.5445 185.928V192.712C28.5445 192.952 28.6885 193.096 28.8645 193.096ZM32.2939 191.544C32.7419 192.536 33.6219 193.192 34.7419 193.192C36.6779 193.192 37.7979 191.416 37.7979 189.32C37.7979 187.224 36.6779 185.448 34.7419 185.448C33.6219 185.448 32.7419 186.104 32.2939 187.096V182.76C32.2939 182.52 32.1499 182.376 31.9579 182.376C31.7819 182.376 31.6379 182.52 31.6379 182.76V192.712C31.6379 192.952 31.7819 193.096 31.9579 193.096C32.1499 193.096 32.2939 192.952 32.2939 192.712V191.544ZM34.7099 192.568C33.1899 192.568 32.2779 191.08 32.2779 189.32C32.2779 187.56 33.1899 186.072 34.7099 186.072C36.2299 186.072 37.1419 187.56 37.1419 189.32C37.1419 191.08 36.2299 192.568 34.7099 192.568ZM44.6753 191.832V192.712C44.6753 192.952 44.8193 193.096 45.0113 193.096C45.1873 193.096 45.3313 192.952 45.3313 192.712V185.928C45.3313 185.688 45.1873 185.544 45.0113 185.544C44.8193 185.544 44.6753 185.688 44.6753 185.928V190.04C44.6753 191.464 43.7473 192.568 42.3553 192.568C41.1553 192.568 40.3393 191.752 40.3393 189.832V185.928C40.3393 185.688 40.1953 185.544 40.0193 185.544C39.8273 185.544 39.6833 185.688 39.6833 185.928V189.864C39.6833 192.008 40.6913 193.192 42.3393 193.192C43.4113 193.192 44.1953 192.68 44.6753 191.832ZM48.8829 186.264H50.6909C50.9149 186.264 51.0589 186.12 51.0589 185.944C51.0589 185.784 50.9149 185.64 50.6909 185.64H48.8829V183.88C48.8829 183.64 48.7389 183.496 48.5469 183.496C48.3709 183.496 48.2269 183.64 48.2269 183.88V185.64H47.2509C47.0269 185.64 46.8829 185.784 46.8829 185.944C46.8829 186.12 47.0269 186.264 47.2509 186.264H48.2269V190.824C48.2269 192.52 48.9309 193.144 50.0989 193.144C50.3549 193.144 50.7069 193.112 50.9469 193C51.0909 192.936 51.2029 192.824 51.2029 192.664C51.2029 192.488 51.0909 192.376 50.8829 192.376C50.6589 192.376 50.5149 192.52 50.1149 192.52C49.3469 192.52 48.8829 192.056 48.8829 190.824V186.264ZM52.9861 189.016C53.0661 187.336 53.9621 186.072 55.4181 186.072C56.8901 186.072 57.7541 187.352 57.8501 189.016H52.9861ZM57.2101 191.912C56.8261 192.28 56.2981 192.568 55.5781 192.568C53.9461 192.568 53.0661 191.112 52.9861 189.64H58.1861C58.3781 189.64 58.5061 189.512 58.5061 189.32C58.5061 187.176 57.3701 185.448 55.4181 185.448C53.4501 185.448 52.3141 187.224 52.3141 189.32C52.3141 191.416 53.5141 193.192 55.5781 193.192C56.4421 193.192 57.1461 192.888 57.6741 192.376C57.7701 192.28 57.8341 192.184 57.8341 192.056C57.8341 191.88 57.7061 191.752 57.5461 191.752C57.4341 191.752 57.3221 191.8 57.2101 191.912ZM63.0115 192.568C61.4915 192.568 60.5795 191.08 60.5795 189.32C60.5795 187.56 61.4915 186.072 63.0115 186.072C64.5315 186.072 65.4435 187.56 65.4435 189.32C65.4435 191.08 64.5315 192.568 63.0115 192.568ZM65.4275 191.544V192.712C65.4275 192.952 65.5715 193.096 65.7635 193.096C65.9395 193.096 66.0835 192.952 66.0835 192.712V182.76C66.0835 182.52 65.9395 182.376 65.7635 182.376C65.5715 182.376 65.4275 182.52 65.4275 182.76V187.096C64.9795 186.104 64.0995 185.448 62.9795 185.448C61.0435 185.448 59.9235 187.224 59.9235 189.32C59.9235 191.416 61.0435 193.192 62.9795 193.192C64.0995 193.192 64.9795 192.536 65.4275 191.544ZM72.836 186.264H74.644C74.868 186.264 75.012 186.12 75.012 185.944C75.012 185.784 74.868 185.64 74.644 185.64H72.836V183.88C72.836 183.64 72.692 183.496 72.5 183.496C72.324 183.496 72.18 183.64 72.18 183.88V185.64H71.204C70.98 185.64 70.836 185.784 70.836 185.944C70.836 186.12 70.98 186.264 71.204 186.264H72.18V190.824C72.18 192.52 72.884 193.144 74.052 193.144C74.308 193.144 74.66 193.112 74.9 193C75.044 192.936 75.156 192.824 75.156 192.664C75.156 192.488 75.044 192.376 74.836 192.376C74.612 192.376 74.468 192.52 74.068 192.52C73.3 192.52 72.836 192.056 72.836 190.824V186.264ZM76.9393 189.016C77.0193 187.336 77.9153 186.072 79.3713 186.072C80.8433 186.072 81.7073 187.352 81.8033 189.016H76.9393ZM81.1633 191.912C80.7793 192.28 80.2513 192.568 79.5312 192.568C77.8993 192.568 77.0193 191.112 76.9393 189.64H82.1393C82.3313 189.64 82.4593 189.512 82.4593 189.32C82.4593 187.176 81.3233 185.448 79.3713 185.448C77.4033 185.448 76.2673 187.224 76.2673 189.32C76.2673 191.416 77.4673 193.192 79.5312 193.192C80.3953 193.192 81.0993 192.888 81.6273 192.376C81.7233 192.28 81.7873 192.184 81.7873 192.056C81.7873 191.88 81.6593 191.752 81.4993 191.752C81.3873 191.752 81.2753 191.8 81.1633 191.912ZM88.4423 188.744H87.0503C85.3703 188.744 83.6423 189.176 83.6423 190.952C83.6423 192.28 84.6023 193.192 86.0583 193.192C87.2103 193.192 88.0423 192.616 88.4743 191.816C88.5703 192.504 88.9543 193.096 89.7863 193.096C90.0103 193.096 90.1543 192.952 90.1543 192.792C90.1543 192.616 90.0103 192.472 89.7863 192.472C89.3223 192.472 89.0983 192.088 89.0983 191.304V187.976C89.0983 186.248 88.0103 185.448 86.5383 185.448C85.7383 185.448 84.9863 185.672 84.3783 186.248C84.2503 186.376 84.2023 186.472 84.2023 186.584C84.2023 186.776 84.3143 186.888 84.4903 186.888C84.6343 186.888 84.7303 186.808 84.7943 186.744C85.2582 186.28 85.8503 186.072 86.5223 186.072C87.5943 186.072 88.4423 186.664 88.4423 188.008V188.744ZM88.4423 189.368V190.04C88.4423 191.464 87.5303 192.568 86.0903 192.568C84.9863 192.568 84.3143 191.944 84.3143 190.984C84.3143 189.592 85.7063 189.368 87.0983 189.368H88.4423ZM96.9454 187.128C96.5774 186.008 95.7614 185.448 94.7054 185.448C93.6974 185.448 92.9294 185.944 92.4814 186.744V185.928C92.4814 185.688 92.3374 185.544 92.1454 185.544C91.9694 185.544 91.8254 185.688 91.8254 185.928V192.712C91.8254 192.952 91.9694 193.096 92.1454 193.096C92.3374 193.096 92.4814 192.952 92.4814 192.712V188.472C92.4814 187.128 93.4094 186.072 94.6734 186.072C95.7614 186.072 96.5774 186.856 96.5774 188.744V192.712C96.5774 192.952 96.7214 193.096 96.8974 193.096C97.0894 193.096 97.2334 192.952 97.2334 192.712V188.472C97.2334 187.128 98.1294 186.072 99.4414 186.072C100.561 186.072 101.329 186.856 101.329 188.744V192.712C101.329 192.952 101.473 193.096 101.649 193.096C101.841 193.096 101.985 192.952 101.985 192.712V188.712C101.985 186.552 100.993 185.448 99.4574 185.448C98.2734 185.448 97.3934 186.088 96.9454 187.128ZM103.925 192.296C104.437 192.824 105.205 193.192 106.245 193.192C107.845 193.192 108.805 192.312 108.805 191.064C108.805 189.576 107.445 189.224 106.405 188.968C105.429 188.728 104.645 188.568 104.645 187.48C104.645 186.584 105.189 186.056 106.261 186.056C106.869 186.056 107.333 186.216 107.733 186.504C107.845 186.584 107.941 186.632 108.069 186.632C108.245 186.632 108.357 186.504 108.357 186.344C108.357 186.2 108.277 186.088 108.165 186.008C107.701 185.656 106.981 185.448 106.261 185.448C104.821 185.448 103.989 186.248 103.989 187.496C103.989 189.096 105.333 189.384 106.213 189.592C107.365 189.864 108.149 190.104 108.149 191.048C108.149 191.944 107.493 192.584 106.229 192.584C105.365 192.584 104.805 192.28 104.373 191.832C104.293 191.752 104.197 191.704 104.085 191.704C103.909 191.704 103.797 191.832 103.797 192.008C103.797 192.12 103.845 192.216 103.925 192.296Z" fill="black"/>
</svg>
