<svg width="158" height="18" viewBox="0 0 158 18" fill="none" xmlns="http://www.w3.org/2000/svg">
<path d="M14.875 13L11.35 1.175C11.2 0.674999 10.85 0.374999 10.425 0.374999C10 0.374999 9.65 0.674999 9.5 1.175L5.975 13L2.475 1.225C2.3 0.624999 1.975 0.374999 1.525 0.374999C0.975 0.374999 0.65 0.724999 0.65 1.275C0.65 1.425 0.675 1.65 0.725 1.825L5.05 16.4C5.2 16.9 5.55 17.175 5.975 17.175C6.4 17.175 6.75 16.9 6.9 16.4L10.425 4.55L13.95 16.4C14.1 16.9 14.45 17.175 14.875 17.175C15.3 17.175 15.65 16.9 15.8 16.4L20.125 1.825C20.175 1.65 20.2 1.425 20.2 1.275C20.2 0.724999 19.875 0.374999 19.325 0.374999C18.875 0.374999 18.55 0.624999 18.375 1.225L14.875 13ZM22.6016 10.325C22.8266 8.3 23.9266 6.8 25.7766 6.8C27.6266 6.8 28.7516 8.3 28.9766 10.325H22.6016ZM22.6266 12.075H29.9266C30.4766 12.075 30.8266 11.725 30.8266 11.175C30.8266 7.85 28.9766 5.05 25.7766 5.05C22.6016 5.05 20.7516 7.85 20.7516 11.175C20.7516 14.5 22.6016 17.3 26.0516 17.3C27.4016 17.3 28.5766 16.825 29.4016 16.075C29.6266 15.875 29.8516 15.6 29.8516 15.175C29.8516 14.675 29.5266 14.35 29.0266 14.35C28.6766 14.35 28.4016 14.55 28.1266 14.8C27.6516 15.225 26.9766 15.55 26.0266 15.55C23.7516 15.55 22.8016 13.7 22.6266 12.075ZM40.2734 8.65V2.35H43.9984C46.3484 2.35 47.6484 3.5 47.6484 5.5C47.6484 7.5 46.3484 8.65 43.9984 8.65H40.2734ZM40.2734 10.45H43.9984C47.4984 10.45 49.4984 8.425 49.4984 5.5C49.4984 2.575 47.4984 0.549999 43.9984 0.549999H39.3484C38.7984 0.549999 38.4234 0.925 38.4234 1.475V16.125C38.4234 16.775 38.8234 17.175 39.3484 17.175C39.8734 17.175 40.2734 16.775 40.2734 16.125V10.45ZM57.6896 11.725V12.025C57.6896 14 56.5146 15.55 54.4646 15.55C53.1396 15.55 52.2396 14.875 52.2396 13.675C52.2396 11.775 54.5146 11.725 56.0146 11.725H57.6896ZM57.8896 15.475C58.2646 16.625 59.0896 17.175 60.3146 17.175C60.9146 17.175 61.3146 16.775 61.3146 16.3C61.3146 15.825 60.9146 15.425 60.3146 15.425C59.7646 15.425 59.4896 14.95 59.4896 14V9.25C59.4896 6.3 57.5896 5.05 55.1896 5.05C53.8146 5.05 52.5896 5.45 51.6896 6.3C51.4396 6.55 51.2646 6.775 51.2646 7.175C51.2646 7.725 51.6396 8 52.0896 8C52.3646 8 52.5646 7.9 52.7646 7.75C53.2146 7.4 53.6396 6.8 55.0396 6.8C56.4896 6.8 57.6896 7.45 57.6896 9.325V9.975H56.0146C53.6646 9.975 50.4146 10.425 50.4146 13.65C50.4146 15.9 52.0396 17.3 54.3896 17.3C56.0896 17.3 57.2646 16.55 57.8896 15.475ZM65.4646 6.975V6.2C65.4646 5.575 65.0646 5.175 64.5646 5.175C64.0646 5.175 63.6646 5.575 63.6646 6.2V16.15C63.6646 16.775 64.0646 17.175 64.5646 17.175C65.0646 17.175 65.4646 16.775 65.4646 16.15V11.225C65.4646 8.4 66.8646 6.95 68.4396 6.95C69.1146 6.95 69.4646 6.575 69.4646 6.025C69.4646 5.475 69.0646 5.1 68.3896 5.1C68.1146 5.1 67.7396 5.15 67.4646 5.25C66.6146 5.55 65.9146 6.175 65.4646 6.975ZM74.3457 7.1H76.6957C77.2957 7.1 77.6957 6.7 77.6957 6.225C77.6957 5.75 77.2957 5.35 76.6957 5.35H74.3457V2.775C74.3457 2.15 73.9457 1.75 73.4457 1.75C72.9457 1.75 72.5457 2.15 72.5457 2.775V5.35H71.3707C70.7707 5.35 70.3707 5.75 70.3707 6.225C70.3707 6.7 70.7707 7.1 71.3707 7.1H72.5457V13.4C72.5457 15.75 73.4957 17.3 75.9707 17.3C77.0457 17.3 77.9457 17 77.9457 16.175C77.9457 15.7 77.6457 15.375 77.0957 15.375C76.6957 15.375 76.4707 15.55 75.9207 15.55C74.9707 15.55 74.3457 15.05 74.3457 13.3V7.1ZM82.0174 6.75V6.2C82.0174 5.575 81.6174 5.175 81.1174 5.175C80.6174 5.175 80.2174 5.575 80.2174 6.2V16.15C80.2174 16.775 80.6174 17.175 81.1174 17.175C81.5924 17.175 82.0174 16.775 82.0174 16.15V10.325C82.0174 8.325 83.3424 6.8 84.9924 6.8C86.5924 6.8 87.7924 7.75 87.7924 10.425V16.15C87.7924 16.775 88.1924 17.175 88.6924 17.175C89.1924 17.175 89.5924 16.775 89.5924 16.15V10.35C89.5924 7.05 88.0674 5.05 85.1174 5.05C83.7674 5.05 82.7174 5.675 82.0174 6.75ZM94.1104 10.325C94.3354 8.3 95.4354 6.8 97.2854 6.8C99.1354 6.8 100.26 8.3 100.485 10.325H94.1104ZM94.1354 12.075H101.435C101.985 12.075 102.335 11.725 102.335 11.175C102.335 7.85 100.485 5.05 97.2854 5.05C94.1104 5.05 92.2604 7.85 92.2604 11.175C92.2604 14.5 94.1104 17.3 97.5604 17.3C98.9104 17.3 100.085 16.825 100.91 16.075C101.135 15.875 101.36 15.6 101.36 15.175C101.36 14.675 101.035 14.35 100.535 14.35C100.185 14.35 99.9104 14.55 99.6354 14.8C99.1604 15.225 98.4854 15.55 97.5354 15.55C95.2604 15.55 94.3104 13.7 94.1354 12.075ZM106.846 6.975V6.2C106.846 5.575 106.446 5.175 105.946 5.175C105.446 5.175 105.046 5.575 105.046 6.2V16.15C105.046 16.775 105.446 17.175 105.946 17.175C106.446 17.175 106.846 16.775 106.846 16.15V11.225C106.846 8.4 108.246 6.95 109.821 6.95C110.496 6.95 110.846 6.575 110.846 6.025C110.846 5.475 110.446 5.1 109.771 5.1C109.496 5.1 109.121 5.15 108.846 5.25C107.996 5.55 107.296 6.175 106.846 6.975ZM127.416 13.55L124.966 5.95C124.816 5.475 124.491 5.175 124.066 5.175C123.641 5.175 123.316 5.475 123.166 5.95L120.716 13.55L118.291 5.975C118.166 5.575 117.916 5.175 117.366 5.175C116.866 5.175 116.516 5.5 116.516 6C116.516 6.2 116.566 6.425 116.616 6.6L119.816 16.4C119.966 16.875 120.291 17.175 120.716 17.175C121.141 17.175 121.491 16.875 121.641 16.4L124.066 8.8L126.491 16.4C126.641 16.875 126.991 17.175 127.416 17.175C127.841 17.175 128.166 16.875 128.316 16.4L131.516 6.6C131.566 6.425 131.616 6.2 131.616 6C131.616 5.5 131.266 5.175 130.766 5.175C130.216 5.175 129.966 5.575 129.841 5.975L127.416 13.55ZM134.828 2.825C135.453 2.825 135.978 2.3 135.978 1.675C135.978 1.05 135.453 0.524999 134.828 0.524999C134.203 0.524999 133.678 1.05 133.678 1.675C133.678 2.3 134.203 2.825 134.828 2.825ZM134.828 17.175C135.328 17.175 135.728 16.775 135.728 16.15V6.2C135.728 5.575 135.328 5.175 134.828 5.175C134.328 5.175 133.928 5.575 133.928 6.2V16.15C133.928 16.775 134.328 17.175 134.828 17.175ZM141.875 7.1H144.225C144.825 7.1 145.225 6.7 145.225 6.225C145.225 5.75 144.825 5.35 144.225 5.35H141.875V2.775C141.875 2.15 141.475 1.75 140.975 1.75C140.475 1.75 140.075 2.15 140.075 2.775V5.35H138.9C138.3 5.35 137.9 5.75 137.9 6.225C137.9 6.7 138.3 7.1 138.9 7.1H140.075V13.4C140.075 15.75 141.025 17.3 143.5 17.3C144.575 17.3 145.475 17 145.475 16.175C145.475 15.7 145.175 15.375 144.625 15.375C144.225 15.375 144 15.55 143.45 15.55C142.5 15.55 141.875 15.05 141.875 13.3V7.1ZM149.547 6.75V1.35C149.547 0.774999 149.147 0.374999 148.647 0.374999C148.147 0.374999 147.747 0.774999 147.747 1.35V16.2C147.747 16.775 148.147 17.175 148.647 17.175C149.122 17.175 149.547 16.775 149.547 16.2V10.325C149.547 8.325 150.872 6.8 152.522 6.8C154.122 6.8 155.322 7.75 155.322 10.425V16.2C155.322 16.775 155.722 17.175 156.222 17.175C156.722 17.175 157.122 16.775 157.122 16.2V10.35C157.122 7.05 155.597 5.05 152.647 5.05C151.297 5.05 150.247 5.675 149.547 6.75Z" fill="black"/>
</svg>
